<?xml version="1.0" encoding="UTF-8"?><svg id="Calque_1" xmlns="http://www.w3.org/2000/svg" viewBox="0 0 100 100"><defs><style>.cls-1{fill:#eceef0;}.cls-2{fill:#eeeff2;}.cls-3{fill:#ebedef;}.cls-4{fill:#151515;}.cls-5{fill:#a02417;}</style></defs><path class="cls-4" d="M98.52,64.58l-.04,4.61-12.85,8.22-.37.03c.17-1.15.22-2.56-.46-3.55-.38.08-.76-.38-.99-.68-.28-4-2.33-7.76-5.58-10.15-.24-.14-.25-.3-.22-.52.04-.23,3.22-2.2,3.69-2.46h.01s0-24.62,0-24.62c-4.85,2.83-9.65,5.74-14.41,8.73h-.01s0,14.1,0,14.1l-.23.14c.05.09.06.23,0,.25-1.11.29-1.64.3-1.63-1.04.13-2.85.21-6.03.2-9.31-.03-9.58-.05-19.15-.12-28.73v-3.19c0-.64.02-1.12.05-1.35-6.14,3.71-12.27,7.37-18.36,10.98.07,13.15.07,26.3.06,39.4,0,4.97-.04,9.94-.09,14.91,0,.18-1.46,1.94-1.5,1.49-.17-1.81-.2-3.61-.17-5.43l.1-35.87c-.13-4.93-.12-9.61-.09-14.36,0-.07-.75-.54-.88-.62-5.89-3.54-12.4-7.3-18.39-10.68l.07,4.52c-.11,11.43-.07,22.75.12,33.96l-.02,17.93c1.65,1.02,3.37,2.03,5.16,3.01v-14.53l.23-.14c-.55-.48.45-1.58,1.13-1.29,1.19.71,2.41,1.36,3.67,1.94,1.29.7,2.63,1.68,2.76,3.25-.05,5.16-.03,10.3.06,15.41l6.06,3.71c.07.57.14,1.08.27,1.56l-.3-.19L8.85,62.26v-3.48l-6.92,4.2.92.59,49.04,30.51,4.26-2.41-1.45-1.13,1.45.33c2.66.58,5.35.72,7.53.38l.39.15-11.86,7.56-.39-.05L1.19,66.65l-.48-.44v-3.77c2.67-1.82,5.58-3.3,8.17-5.23.08-4.15-.04-8.31.01-12.46.01-.27.12-.53.13-.8.03-2.46-.09-4.92.05-7.38l.64-.51,15.08-9.13.19-13.5.18-.27L45.34,1.17l.59-.21c7,3.99,13.99,8.01,20.85,12.24l.28.64.05,10.59c4.48,2.74,9.12,5.21,13.61,7.92.43.26,2.36,1.32,2.46,1.66l.04,21.42c4.3,2.56,8.67,5.01,12.95,7.6.39.24,2.27,1.29,2.35,1.55Z"/><path class="cls-3" d="M84.8,73.89c-.38.08-.76-.38-.99-.68-.28-4-2.33-7.76-5.58-10.15-.24-.14-.25-.3-.22-.52.04-.23,3.22-2.2,3.69-2.46h.01s0-24.62,0-24.62c-4.85,2.83-9.65,5.74-14.41,8.73h-.01s0,14.1,0,14.1l-.23.14c.05.09.06.23,0,.25-1.11.29-1.64.3-1.63-1.04.13-2.85.21-6.03.2-9.31-.03-9.58-.05-19.15-.12-28.73v-3.19c0-.64.02-1.12.05-1.35-6.14,3.71-12.27,7.37-18.36,10.98.07,13.15.07,26.3.06,39.4,0,4.97-.04,9.94-.09,14.91,0,.18-1.46,1.94-1.5,1.49-.17-1.81-.2-3.61-.17-5.43l.1-35.87c-.13-4.93-.12-9.61-.09-14.36,0-.07-.75-.54-.88-.62-5.89-3.54-12.4-7.3-18.39-10.68l.07,4.52c-.11,11.43-.07,22.75.12,33.96l-.02,17.93c1.65,1.02,3.37,2.03,5.16,3.01v-14.53l.23-.14c-.55-.48.45-1.58,1.13-1.29,1.19.71,2.41,1.36,3.67,1.94,1.29.7,2.63,1.68,2.76,3.25-.05,5.16-.03,10.3.06,15.41l6.06,3.71c.07.57.14,1.08.27,1.56l-.3-.19L8.85,62.26v-3.48l-6.92,4.2.92.59,49.04,30.51,4.26-2.41-1.45-1.13,1.45.33c2.66.58,5.35.72,7.53.38l.39.15c4.05-.92,7.38-4.12,10.91-5.74.59-.27,1.33-.35,1.94-.58,3.56-1.32,8.59-4.79,8.33-9.07l-.46-2.12ZM29.05,21.4c.04-.15.24-.19.39-.18.3.02,3.72,2.04,4.18,2.36.4.29.63.34.7.9.18,1.59-.05,3.72-.01,5.39.01.52.43,1.35-.56,1.14l-4.24-2.52c-.17-.09-.46-.54-.46-.68v-6.41ZM29.04,33.07c-.03-.27.21-.51.47-.46l4.54,2.62c.14.15.24.49.27.7.18,1.6-.02,3.83-.01,5.51,0,.41.29.95-.28,1.03l-4.56-2.6c-.35-.2-.4-.48-.43-.84-.17-1.89.15-4.04,0-5.96ZM33.55,53.76c-1.04-.52-3.04-1.67-3.97-2.33-.43-.31-.49-.55-.54-1.07-.11-1.26-.16-4.64,0-5.84.03-.21.08-.44.32-.5.12-.03.23.01.34.07.67.67,4.14,2.16,4.48,2.74.07.12.2.65.21.8.08,1.52-.12,3.32-.08,4.91.01.68.48,1.84-.76,1.22ZM37.4,26.09c.03-.09.19-.17.29-.18.54-.04,4,2.33,4.76,2.69.12.09.19.2.22.35.07.37.1,1.28.12,1.71.04.76.1,4.38-.11,4.83-.15.32-.23.34-.58.21-1.31-.47-2.96-1.98-4.35-2.51-.12-.09-.35-.48-.35-.57v-6.53ZM42.79,57.81c-.03.43-.03,1.1-.61.95l-4.51-2.65c-.13-.13-.25-.52-.27-.71-.14-1.29-.16-4.91,0-6.19.09-.78.79-.19,1.23.04,1.33.72,2.62,1.59,3.92,2.38.14.32.21.66.24,1.02.12,1.39.1,3.74,0,5.16ZM42.79,46.59c-.04.45-.13.91-.68.68-1.21-.94-3-1.57-4.17-2.48-.4-.32-.49-.42-.54-.95-.12-1.29-.17-4.73,0-5.96.03-.21.08-.44.31-.5.22-.05.4.11.57.2.99.48,3.12,1.68,3.97,2.33.13.1.28.17.36.32.05.4.15.8.18,1.2.1,1.38.12,3.8,0,5.16ZM79.37,57.64c-.1.24-.28.4-.48.54-.48.35-2.55,1.58-3.05,1.77-.49.18-.92-.11-1.11-.55l.05-5.1c.14-.35.46-.52.76-.72.37-.26,3.28-1.97,3.48-1.98.18,0,.39.17.4.36l-.05,5.68ZM74.72,43.94c.06-.66.22-.66.7-1.01.75-.54,2.56-1.66,3.37-2.02.42-.19.58-.04.64.4.15,1.09.1,4.13,0,5.28-.02.18-.02.3-.1.48-.25.63-3.32,1.94-3.95,2.58-.15.09-.39.06-.51-.06-.13-.14-.13-.42-.15-.6-.11-1.28-.11-3.76,0-5.05ZM68.43,47.84c.04-.46.09-.73.47-1.02,1.18-.46,2.46-1.72,3.57-2.16.39-.15.62.05.66.43.14,1.16.11,4.08,0,5.28-.02.18-.02.29-.09.48-.25.62-3.29,2-3.93,2.6-.15.09-.42.03-.54-.08-.15-.16-.13-.51-.14-.72-.09-1.28-.12-3.55,0-4.81ZM57.55,25.51c.07-.77.14-.98.75-1.43,1.17-.86,2.7-1.54,3.92-2.38.25-.07.46-.01.49.27-.06,2.22.11,4.47-.09,6.67-.05.14-.18.2-.29.28-.52.43-3.31,2.18-3.89,2.4-.6.23-.83.08-.89-.53-.13-1.3-.11-3.96,0-5.28ZM62.71,33.82v6.58c0,.12-.31.4-.42.5-.44.36-3.52,2.29-3.97,2.45-.58.2-.72.01-.77-.54-.13-1.3-.1-3.84,0-5.16.06-.82.1-1.07.75-1.55,1.18-.87,2.76-1.59,4-2.38l.41.1ZM57.55,49.56c.03-.35.1-.7.25-1.02l4.52-2.79.39.09v6.7c0,.11-.27.34-.38.43-1.17.94-2.93,1.66-4.17,2.58-.52.13-.58-.33-.61-.72-.12-1.36-.12-3.91,0-5.27ZM49.99,29.63c.02-.16.01-.33.09-.48,1.43-1.09,3.05-1.94,4.58-2.87.37-.07.46.32.49.61.15,1.27.12,4.2,0,5.5-.03.4-.12.8-.4,1.08-.29.3-3.65,2.36-4.1,2.55-.42.17-.6.01-.66-.42-.16-1.23-.12-4.68,0-5.97ZM49.99,41.65c.02-.16.01-.33.09-.48,1.37-1.1,3.02-1.86,4.47-2.87.44-.12.56.24.6.61.15,1.27.12,4.2,0,5.5-.03.41-.13.87-.46,1.14l-4.04,2.49c-.4.21-.6-.02-.66-.42-.16-1.23-.12-4.68,0-5.97ZM49.99,53.79c.06-.63.17-.63.64-.97,1.17-.86,2.72-1.52,3.92-2.38.45-.12.56.23.6.61.15,1.27.13,4.32,0,5.61-.05.49-.2.82-.59,1.14-.39.31-3.52,2.28-3.89,2.4-.42.14-.63.14-.69-.33-.16-1.37-.12-4.68,0-6.08ZM76.5,83.85c-.69.24-1.54.33-2.16.58-.88.36-2.31,1.49-3.24,2.03-2.16,1.25-4.81,3.02-7.25,3.51-3.55.73-8.39-.15-12.06-1.9l-.03-.02c-.91-.44-1.76-.93-2.49-1.47-.25-.19-.48-.37-.68-.55-3.99-3.55,1.22-6.06,3.86-8.72.68-8.34,6.88-17.26,15.84-17.7,2.81-.14,5.98.78,7.81,3,.4.48.68,1.22,1.03,1.61.26.28.82.51,1.15.79,2.01,1.76,3.16,4.23,3.72,6.81.11.52.12,1.62.31,1.98.26.52,1.12.5,1.32,1.78.59,3.71-4.02,7.2-7.13,8.27Z"/><path class="cls-3" d="M29.04,33.07c-.03-.27.21-.51.47-.46l4.54,2.62c.14.15.24.49.27.7.18,1.6-.02,3.83-.01,5.51,0,.41.29.95-.28,1.03l-4.56-2.6c-.35-.2-.4-.48-.43-.84-.17-1.89.15-4.04,0-5.96Z"/><path class="cls-3" d="M34.31,29.87c.01.52.43,1.35-.56,1.14l-4.24-2.52c-.17-.09-.46-.54-.46-.68v-6.41c.04-.15.24-.19.39-.18.3.02,3.72,2.04,4.18,2.36.4.29.63.34.7.9.18,1.59-.05,3.72-.01,5.39Z"/><path class="cls-3" d="M34.31,52.54c.01.68.48,1.84-.76,1.22-1.04-.52-3.04-1.67-3.97-2.33-.43-.31-.49-.55-.54-1.07-.11-1.26-.16-4.64,0-5.84.03-.21.08-.44.32-.5.12-.03.23.01.34.07.67.67,4.14,2.16,4.48,2.74.07.12.2.65.21.8.08,1.52-.12,3.32-.08,4.91Z"/><path class="cls-3" d="M37.75,33.19c-.12-.09-.35-.48-.35-.57v-6.53c.03-.09.19-.17.29-.18.54-.04,4,2.33,4.76,2.69.12.09.19.2.22.35.07.37.1,1.28.12,1.71.04.76.1,4.38-.11,4.83-.15.32-.23.34-.58.21-1.31-.47-2.96-1.98-4.35-2.51Z"/><path class="cls-3" d="M42.79,52.65c.12,1.39.1,3.74,0,5.16-.03.43-.03,1.1-.61.95l-4.51-2.65c-.13-.13-.25-.52-.27-.71-.14-1.29-.16-4.91,0-6.19.09-.78.79-.19,1.23.04,1.33.72,2.62,1.59,3.92,2.38.14.32.21.66.24,1.02Z"/><path class="cls-3" d="M42.79,46.59c-.04.45-.13.91-.68.68-1.21-.94-3-1.57-4.17-2.48-.4-.32-.49-.42-.54-.95-.12-1.29-.17-4.73,0-5.96.03-.21.08-.44.31-.5.22-.05.4.11.57.2.99.48,3.12,1.68,3.97,2.33.13.1.28.17.36.32.05.4.15.8.18,1.2.1,1.38.12,3.8,0,5.16Z"/><path class="cls-3" d="M31.8,59.63c-.55-.48.45-1.58,1.13-1.29,1.19.71,2.41,1.36,3.67,1.94,1.29.7,2.63,1.68,2.76,3.25-.05,5.16-.03,10.3.06,15.41l6.06,3.71c.07.57.14,1.08.27,1.56l-.3-.19c-.08-.37-.1-.76-.06-1.18l-6.15-3.74-.12-.34v-15.24c-.24-2.7-4.3-3.53-6.18-4.92-.64-.34-1.14.53-1.14,1.03Z"/><path class="cls-3" d="M49.99,41.65c.02-.16.01-.33.09-.48,1.37-1.1,3.02-1.86,4.47-2.87.44-.12.56.24.6.61.15,1.27.12,4.2,0,5.5-.03.41-.13.87-.46,1.14l-4.04,2.49c-.4.21-.6-.02-.66-.42-.16-1.23-.12-4.68,0-5.97Z"/><path class="cls-3" d="M49.99,35.6c-.16-1.23-.12-4.68,0-5.97.02-.16.01-.33.09-.48,1.43-1.09,3.05-1.94,4.58-2.87.37-.07.46.32.49.61.15,1.27.12,4.2,0,5.5-.03.4-.12.8-.4,1.08-.29.3-3.65,2.36-4.1,2.55-.42.17-.6.01-.66-.42Z"/><path class="cls-3" d="M49.99,53.79c.06-.63.17-.63.64-.97,1.17-.86,2.72-1.52,3.92-2.38.45-.12.56.23.6.61.15,1.27.13,4.32,0,5.61-.05.49-.2.82-.59,1.14-.39.31-3.52,2.28-3.89,2.4-.42.14-.63.14-.69-.33-.16-1.37-.12-4.68,0-6.08Z"/><path class="cls-3" d="M62.71,21.97c-.06,2.22.11,4.47-.09,6.67-.05.14-.18.2-.29.28-.52.43-3.31,2.18-3.89,2.4-.6.23-.83.08-.89-.53-.13-1.3-.11-3.96,0-5.28.07-.77.14-.98.75-1.43,1.17-.86,2.7-1.54,3.92-2.38.25-.07.46-.01.49.27Z"/><path class="cls-3" d="M62.3,33.72l.41.1v6.58c0,.12-.31.4-.42.5-.44.36-3.52,2.29-3.97,2.45-.58.2-.72.01-.77-.54-.13-1.3-.1-3.84,0-5.16.06-.82.1-1.07.75-1.55,1.18-.87,2.76-1.59,4-2.38Z"/><path class="cls-3" d="M57.55,49.56c.03-.35.1-.7.25-1.02l4.52-2.79.39.09v6.7c0,.11-.27.34-.38.43-1.17.94-2.93,1.66-4.17,2.58-.52.13-.58-.33-.61-.72-.12-1.36-.12-3.91,0-5.27Z"/><path class="cls-3" d="M67.06,58.43c.05.09.06.23,0,.25-1.11.29-1.64.3-1.63-1.04.13-2.85.21-6.03.2-9.31-.03-9.58-.05-19.15-.12-28.73v-3.19c0-.64.02-1.12.05-1.35-6.14,3.71-12.27,7.37-18.36,10.98.07,13.15.07,26.3.06,39.4,0,4.97-.04,9.94-.09,14.91,0,.18-1.46,1.94-1.5,1.49-.17-1.81-.2-3.61-.17-5.43l.1-35.87c-.13-4.93-.12-9.61-.09-14.36,0-.07-.75-.54-.88-.62-5.89-3.54-12.4-7.3-18.39-10.68l.07,4.52c-.11,11.43-.07,22.75.12,33.96l-.02,17.93c1.65,1.02,3.37,2.03,5.16,3.01v-14.53l.23-.14v15.06l-5.08-2.89c-.19-.15-.5-.21-.54-.49-.02-6.53.04-13.05.01-19.58,0-.35-.12-.67-.12-1.02-.06-12.04.05-24.09,0-36.13.06-.06.96.47,1.11.56,5.58,3.18,11.21,6.41,16.71,9.73.34.2,1.77.99,1.85,1.24-.09,1.48-.12,2.97-.1,4.45.01.35.12.67.13,1.02.2,16.73-.17,33.48-.01,50.21l1.2-1.49c.11-10.49.06-21.09.07-31.54,0-7.59-.01-15.2-.02-22.79l18.48-11.18.25.02c-.04,13.3.24,26.61.06,39.91-.01.64-.38,3.57.11,3.89.04.03,1.15-.12,1.15-.18Z"/><path class="cls-3" d="M68.57,53.37c-.15-.16-.13-.51-.14-.72-.09-1.28-.12-3.55,0-4.81.04-.46.09-.73.47-1.02,1.18-.46,2.46-1.72,3.57-2.16.39-.15.62.05.66.43.14,1.16.11,4.08,0,5.28-.02.18-.02.29-.09.48-.25.62-3.29,2-3.93,2.6-.15.09-.42.03-.54-.08Z"/><path class="cls-3" d="M79.42,51.96l-.05,5.68c-.1.24-.28.4-.48.54-.48.35-2.55,1.58-3.05,1.77-.49.18-.92-.11-1.11-.55l.05-5.1c.14-.35.46-.52.76-.72.37-.26,3.28-1.97,3.48-1.98.18,0,.39.17.4.36Z"/><path class="cls-3" d="M79.43,46.59c-.02.18-.02.3-.1.48-.25.63-3.32,1.94-3.95,2.58-.15.09-.39.06-.51-.06-.13-.14-.13-.42-.15-.6-.11-1.28-.11-3.76,0-5.05.06-.66.22-.66.7-1.01.75-.54,2.56-1.66,3.37-2.02.42-.19.58-.04.64.4.15,1.09.1,4.13,0,5.28Z"/><path class="cls-3" d="M83.63,75.58c.59,3.71-4.02,7.2-7.13,8.27-.69.24-1.54.33-2.16.58-.88.36-2.31,1.49-3.24,2.03-2.16,1.25-4.81,3.02-7.25,3.51-3.55.73-8.39-.15-12.06-1.9l-.03-.02c-.91-.44-1.76-.93-2.49-1.47-.25-.19-.48-.37-.68-.55-3.99-3.55,1.22-6.06,3.86-8.72.68-8.34,6.88-17.26,15.84-17.7,2.81-.14,5.98.78,7.81,3,.4.48.68,1.22,1.03,1.61.26.28.82.51,1.15.79,2.01,1.76,3.16,4.23,3.72,6.81.11.52.12,1.62.31,1.98.26.52,1.12.5,1.32,1.78Z"/><path class="cls-3" d="M84.8,73.89c-.38.08-.76-.38-.99-.68-.28-4-2.33-7.76-5.58-10.15-.24-.14-.25-.3-.22-.52.04-.23,3.22-2.2,3.69-2.46h.01s0-24.62,0-24.62c-4.85,2.83-9.65,5.74-14.41,8.73h-.01s0,14.1,0,14.1l-.23.14v-14.37l8.13-5.02,6.75-3.96v25.13l-3.59,2.25-.19.26c3.3,2.41,5.15,5.62,5.83,9.64.04.25-.04.53.03.76.05.18.57.46.78.77Z"/><path class="cls-3" d="M24.93,70.57c-.07.08-1.77-.93-1.98-1.05-4.29-2.51-8.52-5.14-12.77-7.72.17-8.05.07-16.13.1-24.19l11.87,6.85,2.61,1.62.18,1.2v23.3Z"/><path class="cls-5" d="M76.5,83.85c-.69.24-1.54.33-2.16.58-.88.36-2.31,1.49-3.24,2.03-2.16,1.25-4.81,3.02-7.25,3.51-3.55.73-8.39-.15-12.06-1.9l-.03-.02c-.91-.44-1.76-.93-2.49-1.47-.25-.19-.48-.37-.68-.55-3.99-3.55,1.22-6.06,3.86-8.72.68-8.34,6.88-17.26,15.84-17.7,2.81-.14,5.98.78,7.81,3,.4.48.68,1.22,1.03,1.61.26.28.82.51,1.15.79,2.01,1.76,3.16,4.23,3.72,6.81.11.52.12,1.62.31,1.98.26.52,1.12.5,1.32,1.78.59,3.71-4.02,7.2-7.13,8.27Z"/><path class="cls-4" d="M42.79,46.59c-.04.45-.13.91-.68.68-1.21-.94-3-1.57-4.17-2.48-.4-.32-.49-.42-.54-.95-.12-1.29-.17-4.73,0-5.96.03-.21.08-.44.31-.5.22-.05.4.11.57.2.99.48,3.12,1.68,3.97,2.33.13.1.28.17.36.32.05.4.15.8.18,1.2.1,1.38.12,3.8,0,5.16Z"/><path class="cls-4" d="M42.79,57.81c-.03.43-.03,1.1-.61.95l-4.51-2.65c-.13-.13-.25-.52-.27-.71-.14-1.29-.16-4.91,0-6.19.09-.78.79-.19,1.23.04,1.33.72,2.62,1.59,3.92,2.38.14.32.21.66.24,1.02.12,1.39.1,3.74,0,5.16Z"/><path class="cls-4" d="M42.68,35.49c-.15.32-.23.34-.58.21-1.31-.47-2.96-1.98-4.35-2.51-.12-.09-.35-.48-.35-.57v-6.53c.03-.09.19-.17.29-.18.54-.04,4,2.33,4.76,2.69.12.09.19.2.22.35.07.37.1,1.28.12,1.71.04.76.1,4.38-.11,4.83Z"/><path class="cls-4" d="M34.31,52.54c.01.68.48,1.84-.76,1.22-1.04-.52-3.04-1.67-3.97-2.33-.43-.31-.49-.55-.54-1.07-.11-1.26-.16-4.64,0-5.84.03-.21.08-.44.32-.5.12-.03.23.01.34.07.67.67,4.14,2.16,4.48,2.74.07.12.2.65.21.8.08,1.52-.12,3.32-.08,4.91Z"/><path class="cls-4" d="M33.75,31.01l-4.24-2.52c-.17-.09-.46-.54-.46-.68v-6.41c.04-.15.24-.19.39-.18.3.02,3.72,2.04,4.18,2.36.4.29.63.34.7.9.18,1.59-.05,3.72-.01,5.39.01.52.43,1.35-.56,1.14Z"/><path class="cls-4" d="M34.31,41.44c0,.41.29.95-.28,1.03l-4.56-2.6c-.35-.2-.4-.48-.43-.84-.17-1.89.15-4.04,0-5.96-.03-.27.21-.51.47-.46l4.54,2.62c.14.15.24.49.27.7.18,1.6-.02,3.83-.01,5.51Z"/><path class="cls-4" d="M55.16,56.66c-.05.49-.2.82-.59,1.14-.39.31-3.52,2.28-3.89,2.4-.42.14-.63.14-.69-.33-.16-1.37-.12-4.68,0-6.08.06-.63.17-.63.64-.97,1.17-.86,2.72-1.52,3.92-2.38.45-.12.56.23.6.61.15,1.27.13,4.32,0,5.61Z"/><path class="cls-4" d="M55.15,32.39c-.03.4-.12.8-.4,1.08-.29.3-3.65,2.36-4.1,2.55-.42.17-.6.01-.66-.42-.16-1.23-.12-4.68,0-5.97.02-.16.01-.33.09-.48,1.43-1.09,3.05-1.94,4.58-2.87.37-.07.46.32.49.61.15,1.27.12,4.2,0,5.5Z"/><path class="cls-4" d="M62.62,28.64c-.05.14-.18.2-.29.28-.52.43-3.31,2.18-3.89,2.4-.6.23-.83.08-.89-.53-.13-1.3-.11-3.96,0-5.28.07-.77.14-.98.75-1.43,1.17-.86,2.7-1.54,3.92-2.38.25-.07.46-.01.49.27-.06,2.22.11,4.47-.09,6.67Z"/><path class="cls-4" d="M55.15,44.41c-.03.41-.13.87-.46,1.14l-4.04,2.49c-.4.21-.6-.02-.66-.42-.16-1.23-.12-4.68,0-5.97.02-.16.01-.33.09-.48,1.37-1.1,3.02-1.86,4.47-2.87.44-.12.56.24.6.61.15,1.27.12,4.2,0,5.5Z"/><path class="cls-4" d="M62.71,45.84v6.7c0,.11-.27.34-.38.43-1.17.94-2.93,1.66-4.17,2.58-.52.13-.58-.33-.61-.72-.12-1.36-.12-3.91,0-5.27.03-.35.1-.7.25-1.02l4.52-2.79.39.09Z"/><path class="cls-4" d="M62.71,33.82v6.58c0,.12-.31.4-.42.5-.44.36-3.52,2.29-3.97,2.45-.58.2-.72.01-.77-.54-.13-1.3-.1-3.84,0-5.16.06-.82.1-1.07.75-1.55,1.18-.87,2.76-1.59,4-2.38l.41.1Z"/><path class="cls-4" d="M73.13,50.37c-.02.18-.02.29-.09.48-.25.62-3.29,2-3.93,2.6-.15.09-.42.03-.54-.08-.15-.16-.13-.51-.14-.72-.09-1.28-.12-3.55,0-4.81.04-.46.09-.73.47-1.02,1.18-.46,2.46-1.72,3.57-2.16.39-.15.62.05.66.43.14,1.16.11,4.08,0,5.28Z"/><path class="cls-4" d="M79.43,46.59c-.02.18-.02.3-.1.48-.25.63-3.32,1.94-3.95,2.58-.15.09-.39.06-.51-.06-.13-.14-.13-.42-.15-.6-.11-1.28-.11-3.76,0-5.05.06-.66.22-.66.7-1.01.75-.54,2.56-1.66,3.37-2.02.42-.19.58-.04.64.4.15,1.09.1,4.13,0,5.28Z"/><path class="cls-4" d="M79.42,51.96l-.05,5.68c-.1.24-.28.4-.48.54-.48.35-2.55,1.58-3.05,1.77-.49.18-.92-.11-1.11-.55l.05-5.1c.14-.35.46-.52.76-.72.37-.26,3.28-1.97,3.48-1.98.18,0,.39.17.4.36Z"/><path class="cls-4" d="M12.98,53.52c.2-.07.4,0,.58.08.58.23,2.74,1.56,3.3,1.97.42.31.47.3.52.86.11,1.18.14,4.01,0,5.16-.06.47-.24.47-.66.31-1.08-.42-2.43-1.69-3.58-2.15-.29-.21-.32-.58-.35-.91-.11-1.14-.13-3.82,0-4.93.02-.16,0-.32.19-.38Z"/><path class="cls-4" d="M13.1,43.45c.13-.04.25-.03.37.05,1.24.82,2.66,1.45,3.82,2.37.08.15.07.32.09.48.11,1.19.14,4,0,5.16-.05.42-.18.48-.57.33-.6-.57-3.53-1.83-3.84-2.35-.11-.19-.16-.61-.18-.85-.09-1.07-.14-3.69,0-4.7.03-.21.08-.43.32-.49Z"/><path class="cls-4" d="M19.09,47.27c.03-.09.18-.17.29-.18.54-.05,3.3,1.97,4,2.3.35,1.47.15,3.03.06,4.51-.02.36.19,1.66-.28,1.67-.21,0-3.28-1.84-3.63-2.1-.13-.09-.44-.33-.44-.47v-5.72Z"/><path class="cls-4" d="M19.09,57.34c.06-.2.38-.2.54-.08.74.66,3.2,1.58,3.7,2.26.15.2.2.44.23.69.16,1.41-.03,3.07-.1,4.48-.02.39.38.85-.36.91l-3.7-2.14c-.09-.06-.3-.31-.3-.38v-5.72Z"/><path class="cls-1" d="M72.09,63.24c-4.1,1.07-7.26,4.39-9.5,7.84-.9,1.39-1.55,2.87-2.38,4.26-.11.18-.21.56-.48.49,1.13-5.15,5.12-12.22,10.95-12.81.38-.04,1.2-.15,1.42.21Z"/><path class="cls-2" d="M69.58,84.08c-.04.22-.24.19-.4.23-4.21,1.28-13.72-.78-16.15-4.7-.31-.49-.19-.64.29-.29.41.3.82.72,1.26,1.02,4.47,3.04,9.62,3.99,14.99,3.73Z"/><polygon class="cls-3" points="78.23 63.06 82.82 60.28 83.25 60 83.25 56.43 97.3 65.01 83.41 73.35 80.08 65.63 78.23 63.06"/></svg>