<?xml version="1.0" encoding="UTF-8"?><svg id="Calque_1" xmlns="http://www.w3.org/2000/svg" viewBox="0 0 100 100"><defs><style>.cls-1{fill:#131313;}.cls-2{fill:#eff0f3;}.cls-3{fill:#131414;}.cls-4{fill:#eff0f2;}.cls-5{fill:#edeef1;}.cls-6{fill:#eceef0;}.cls-7{fill:#131314;}.cls-8{fill:#131413;}.cls-9{fill:#eceef1;}.cls-10{fill:#a01f17;}.cls-11{fill:#070707;}</style></defs><path class="cls-1" d="M88.08,32.85c.04,7.05.03,14.01-.02,20.89.01.45.02.9.08,1.35.02.16.11.2.26.18l10.72,6.42c.12.19.11,4.04.06,4.52-.02.15.01.31-.11.44-15.98,9.88-32.06,19.6-47.92,29.67-.25.13-.56.13-.81,0-16.15-10.49-32.28-21.01-48.56-31.32l-.31-.34c0-1.54-.14-3.15.08-4.66l9.35-5.67v-23.71c0-.29.14-.57.37-.74l13.36-7.96c.98-.43,2.03.8,2.94,1.14v-6.26c0-.49,1.26-1.13,1.67-1.38,7.04-4.31,14.38-8.18,21.47-12.38l.4.02,20.86,11.9c.17.14.2.33.22.54.28,2.37-.31,5.4,0,7.73.02.12.02.23.11.33l15.79,9.3h-.01Z"/><path class="cls-11" d="M88.41,55.27c-.17.19-.29.06-.33-.16-.29-1.73.3-4.09-.11-5.87.05-5.26-.05-10.52,0-15.78,0-.18-.07-.48.11-.6.08.23.1.46.11.7.47,6.88-.47,14.35-.01,21.23.01.2-.03.41.22.48h.01Z"/><path class="cls-6" d="M49.23,28.99l21.76-12.57v52.23l.39-.1,16.81-10.18c.25-.3.05-1.06.11-1.47l9.03,5.22-46.85,28.5L3.31,60.49l.07-.22,7.01-3.86,37.7,22.59c.35-.11,1.07-.45,1.12-.83.03-.19-.09-.41-.09-.63-.04-4.95,0-9.9.14-14.84l12.17-7.42v1.96c.24.03,1.12,0,1.18-.28.02-.08-.1-.36-.1-.53,0-.48-.1-1.71.16-2.03l5.18-3.15v9.03s.29,0,.43.05c.28.12.48.34.76.38V21.93l-.36-.15c-6.54,3.67-12.93,7.66-19.44,11.39v-4.19h0Z"/><path class="cls-6" d="M27.69,65.28l-14.57-8.66c-.47-.31-.99-.53-.99-1.19v-24.1l1.01.46,14.55,8.85v24.65h0Z"/><path class="cls-5" d="M85.69,34.59c.03-.21,1.36-.9,1.36-.68.08,7.19.06,14.38-.05,21.57.09.65.09,1.31,0,1.96.17.14-.09.5-.33.44l-14.42,8.7-.17-1.03.06-22.91c4.5-2.71,9.03-5.39,13.55-8.05Z"/><path class="cls-5" d="M48.04,77.36c-.06.07-1.49-.78-1.56-.86-.05-.05-.1-.08-.08-.17v-44.27l-.28-.28c-4.79-2.51-9.34-5.81-14.11-8.31-.26-.14-1.15-.7-1.33-.42l-.21,43.97c-.4-.32-1.52-.74-1.59-1.24.04-13.71-.03-27.46.01-41.14,0-2.2-.06-4.4.05-6.59,6.51,3.39,12.7,7.34,19.1,10.94v48.37Z"/><path class="cls-5" d="M45.21,61.14v14.58c-1.36-.66-2.59-1.62-3.92-2.36-.03-3.71.11-7.43-.16-11.14l-5.09-2.96c-.17-.14-.84-.13-.84.08v10.28c-1.25-.5-2.34-1.34-3.48-2.04-.04-4.81.04-9.6.11-14.4,4.51,2.55,8.84,5.47,13.38,7.94v.02Z"/><polygon class="cls-6" points="55.76 40.03 55.76 47.92 49.23 51.89 49.12 44.21 49.23 43.89 55.76 40.03"/><path class="cls-6" d="M55.76,49.39v7.89l-6.53,3.97c-.04-2.27.05-4.54,0-6.81,0-.59-.41-1.01.37-1.36l6.15-3.7h0Z"/><path class="cls-6" d="M55.65,30.89v7.83c-2.24,1.15-4.29,2.68-6.53,3.81.04-2.68-.11-5.37.13-8.03,2.19-1.1,4.2-2.56,6.4-3.61Z"/><path class="cls-9" d="M31.82,24.8l.39.1c1.91,1.27,4.01,2.28,5.87,3.6,0,2.63-.09,5.29-.05,7.94-.15.03-.27-.03-.4-.09-1.26-.53-2.99-1.88-4.24-2.61-.51-.3-1.09-.47-1.56-.84v-8.11h-.01Z"/><path class="cls-5" d="M38.02,45.91c-2.17-.95-4.04-2.5-6.2-3.48v-8.16c2.12,1.15,4.19,2.42,6.2,3.75v7.89Z"/><polygon class="cls-5" points="38.02 55.48 31.82 51.73 31.82 43.84 32.44 44.04 38.02 47.48 38.02 55.48"/><polygon class="cls-9" points="45.21 40.9 39.22 37.26 39.22 29.15 45.21 32.69 45.21 40.9"/><path class="cls-6" d="M45.21,59.73l-5.93-3.48c0-2.69-.27-5.37-.11-8.06,2.07,1.1,4.08,2.35,6.04,3.65v7.89Z"/><path class="cls-6" d="M45.21,50.37l-5.69-3.5-.35-.31c.11-2.57.03-5.23.06-7.83.1-.11.72.31.86.39,1.75,1.01,3.41,2.19,5.12,3.26v8h0Z"/><path class="cls-6" d="M67.84,41.99v7.94c-1.84.87-3.53,2.04-5.22,3.16-.03-1.69.04-3.38,0-5.06,0-.64-.3-2.23-.06-2.77.12-.26,3.62-2.39,4.16-2.7.35-.2.74-.45,1.12-.57Z"/><path class="cls-6" d="M67.84,32.74v7.78l-5.08,3.19-.25.02c.18-.37-.02-.67,0-1.03.02-.69.13-1.48.12-2.17,0-1.55-.21-3.08-.06-4.63,1.27-.79,2.54-1.6,3.83-2.37.45-.27.96-.6,1.45-.78h0Z"/><path class="cls-6" d="M67.84,23.6v7.83c-1.92.79-3.55,2.12-5.33,3.16v-7.56c0-.09.18-.4.28-.48l5.05-2.95Z"/><polygon class="cls-9" points="61.42 27.41 61.42 35.19 60 36.16 56.85 37.96 56.76 30.2 56.96 29.97 61.42 27.41"/><path class="cls-5" d="M61.42,46.02v7.83c-1.42.62-2.8,1.89-4.18,2.51-.13.06-.22.15-.39.1v-7.83c1.58-.76,2.96-1.92,4.57-2.61Z"/><path class="cls-6" d="M61.42,44.6c-1.43.62-2.78,1.86-4.18,2.51-.13.06-.22.14-.39.1.17-1.16.14-2.46.11-3.65-.03-1.3-.28-2.72-.12-4.03,0-.12,0-.24.11-.32l4.46-2.56v7.94h0Z"/><path class="cls-11" d="M86.67,57.88c.24-.09.25-.23.33-.44.09-.65.09-1.31,0-1.96v-21.55c-.08-.09-1.13.55-1.31.65-.24-.07.15-.25.2-.29.48-.29,1.22-.92,1.32-.1.24,1.87-.08,4.59-.07,6.55.01,5.47.13,10.95.07,16.42.05.21-.21.99-.55.7v.02Z"/><path class="cls-10" d="M64.58,62.01c1.26-.35,2.12-1.64,3.5-.83.81.47.82,1.37.95,2.21.6,3.98.86,8.06,1.31,12.06-.11.56-.41,1.09-.94,1.35-4.82,2.54-9.49,5.85-14.32,8.31-.67.34-.98.57-1.78.33-.29-.09-2.76-1.54-3.02-1.76-.38-.32-.49-.81-.59-1.27.41-2.77.63-5.57.99-8.35.15-1.19.37-4.05.78-4.99.47-1.11,2.44-1.79,3.44-2.38.11-2.36.67-4.9,2.25-6.73,2.76-3.19,7.17-2.46,7.46,2.07l-.03-.02Z"/><path class="cls-3" d="M20.94,40.41c.06-.23.27-.13.4-.08.57.19,3.01,1.74,3.61,2.16.46.32.61.34.67.97.1,1.13.12,3.69,0,4.8-.06.51-.21.72-.73.51-.66-.26-2.94-1.65-3.55-2.11-.15-.11-.28-.22-.4-.36v-5.88h0Z"/><path class="cls-1" d="M19.08,54.6c-.1.07-.3,0-.42-.05-.6-.22-2.86-1.64-3.48-2.07-.47-.32-.61-.34-.67-.97-.1-1.11-.14-3.95,0-5.02.04-.33.19-.57.54-.43.4.15,1.2.73,1.63.99s2.33,1.37,2.46,1.68c.04.7.18,5.7-.06,5.86h0Z"/><path class="cls-3" d="M21.12,49.94c.15-.05.33-.02.47.05l3.87,2.44c.03,1.71.32,3.58.17,5.28-.02.21-.05.62-.29.69s-1.46-.74-1.77-.92c-.37-.22-2.48-1.48-2.56-1.68l-.06-5.5c0-.15.01-.31.18-.36h0Z"/><path class="cls-1" d="M19.08,45.14c-.09.06-.31,0-.42-.05l-4.09-2.55-.06-5.61c-.02-.37.24-.47.54-.32l4.01,2.52c.06,1.23-.01,2.46.01,3.69,0,.4.3,2.12,0,2.33h.01Z"/><path class="cls-1" d="M73.62,61.02c-.07-.04-.12-.46-.12-.58-.09-1.3-.12-3.62,0-4.91.08-.92,1.2-1.33,1.93-1.77.58-.35,1.64-1.05,2.22-1.27.36-.14.5.1.54.43.14,1.09.1,3.99,0,5.12-.04.4-.07.55-.4.79-.72.52-2.71,1.68-3.52,2.03-.16.07-.5.25-.65.15h0Z"/><path class="cls-3" d="M79.92,41.83c.07-.25,4.15-2.67,4.41-2.67.1,0,.27.11.27.16v5.77c0,.11-.25.33-.35.41-.51.41-3.31,2.08-3.9,2.31-.15.06-.43.06-.43-.11v-5.88h0Z"/><path class="cls-8" d="M79.92,51.4c.01-.08.12-.22.19-.28l3.95-2.33c.39-.14.5-.07.54.32.14,1.13.12,4.08,0,5.24-.05.46-.16.52-.52.79-.52.39-3.09,1.91-3.66,2.11-.15.05-.51.14-.51-.08v-5.77h.01Z"/><path class="cls-7" d="M73.62,51.44c-.07-.05-.12-.45-.13-.58-.09-1.24-.09-3.23,0-4.47.02-.24.11-.89.21-1.06.11-.19,3.4-2.12,3.81-2.31.51-.23.61-.13.66.43.11,1.15.08,3.3,0,4.47-.05.7-.06,1.02-.62,1.45-.49.37-2.89,1.83-3.41,2.03-.14.05-.41.12-.53.05h.01Z"/><path class="cls-1" d="M86.99,57.44v-1.96c.18.55.18,1.44,0,1.96Z"/><path class="cls-6" d="M62.93,62.87l-6.08,2.84c.31-1.98.8-3.54,2.39-4.84,2.28-1.87,3.47-.5,3.68,2h.01Z"/><path class="cls-2" d="M57.01,68c.51-.1.42,1.16.29,1.49-.21.56-1.03,1.23-1.65.95-.69-.31.5-.71.69-.83.67-.44.4-1.56.67-1.61Z"/><path class="cls-4" d="M65.22,63.65c.23.14.11,1.55-.02,1.87-.16.41-.97,1.09-1.39.79-.48-.33.78-.75.93-1.25.08-.27-.08-1.76.48-1.41Z"/></svg>