<?xml version="1.0" encoding="UTF-8"?><svg id="Calque_1" xmlns="http://www.w3.org/2000/svg" viewBox="0 0 100 100"><defs><style>.cls-1{fill:#a4030a;}.cls-2{fill:#111;}.cls-3{fill:#090909;}.cls-4{fill:#111211;}.cls-5{fill:#171817;}.cls-6{fill:#101111;}.cls-7{fill:#fefefe;}</style></defs><path class="cls-5" d="M42.42,16.32l5.03,3c.06.04.1.1.12.17.16.59.02,1.99.04,2.7.1,3.47.13,6.99.19,10.47.02,1.34-.15,3.02,0,4.29.02.14,0,.23.14.31l7.51-4.33c.36-.09.97.34,1.3.52,6.83,3.84,13.38,8.23,20.21,12.1.19.15.43.3.43.57-.07,6.89.11,13.76.1,20.65l.16.2,7.16,4.1.13.42-36.22,22.51-36.61-22.39c-.04-.14.16-.24.25-.3,1.65-1.2,5.8-3.11,7.43-4.3.09-.06.19-.11.22-.23.07-3.03-.04-6.07.02-9.09,0-.22.09-.41.1-.63.02-.63-.11-3.29.08-3.62l11.55-6.86c.05-1.36-.02-2.73,0-4.09.12-6.24.16-12.51.28-18.74.02-1.2-.17-3,0-4.1.06-.38.36-.53.64-.72,1.39-.94,3.1-1.72,4.55-2.6l.12-.03c.51.84,1.06,1.67,1.66,2.5.99,1.05,1.6.52,2.19-.56l.89-1.75c.07-.16.16-.22.35-.16h-.02Z"/><path class="cls-1" d="M42.42,16.32c-.81.88-1.54,4.67-3.5,2.64-.38-.38-1.47-2.16-1.68-2.64-.52-1.22-.5-3.09.16-4.25.19-.33.96-1.04,1-1.19.11-.36-.21-.93-.26-1.34-.4-4.02,2.72-7.69,6.86-7.23.76.08,1.44.52,2.18.61,1.83-2.09,4.88-3.92,7.61-2.3,1.74,1.04,2.34,2.92,2.32,4.87,2.39.52,3.64,2.05,3.1,4.55s-2.69,3.75-5.22,3.12c-.53-.13-1.9-.9-2.29-.71-.16.08-.66.62-.87.77-2,1.45-3.93,1.37-6.17.47-.54.42-.95,1.01-1.48,1.45-.49.41-1.43.81-1.77,1.19h0,0Z"/><path class="cls-7" d="M48.52,63.39l27.76-16.48c.03,2.44-.03,4.88,0,7.33,0,.24.1.46.1.72.05,4.78-.03,9.58-.03,14.37l-.32.32c-3.18,1.8-6.28,3.75-9.43,5.59-.33.19-.7.43-1.06.53v-7.14c0-.06-.08-.25-.22-.23-.2.03-.82.38-1.05.5-1.89,1.01-3.71,2.2-5.55,3.29-.08.13-.07.28-.09.43-.15,1.75-.04,4.13,0,5.93,0,.37.23.88,0,1.19l-11.11,6.64c-.32.12-.82-.4-1.18-.5-.1.05-.14,0-.09-.09-.08-.93-.08-1.89,0-2.82-.1-6.02-.13-12.05-.09-18.08,0-.34,1.96-1.41,2.36-1.5h0Z"/><path class="cls-7" d="M31.41,49.73c0-.09.16-.09.22-.05.16.13.09,3.06-.04,3.41-.05.94-.08,1.91-.09,2.91.05.9.07,1.82.08,2.77.04.31.22.4.52.41.37,0,.86-.11,1.23-.2,2.42-.59,4.83-1.2,7.21-1.92.49-.19,4.78-1.2,4.78-.92.05,6.11.04,12.23-.09,18.34,0,.02-.1.14-.1.31-.03,3.38.04,6.74,0,10.12l-.14.14c-7.98-4.64-16.01-9.2-23.94-13.93v-17.12l10.33-4.28h.03Z"/><path class="cls-7" d="M39.31,24.08c.03,5.98.18,11.96.09,17.95l-.16.2-6.23,3.69.05-25.3.27.05,6,3.42h0Z"/><path class="cls-7" d="M40.42,41.54v-17.44c1.89-1.31,3.98-2.31,5.91-3.56l.24.05c.06,5.74.2,11.48.12,17.23l-.16.19-6.09,3.5h0Z"/><path class="cls-3" d="M31.41,49.73c-.09,0-.21.05-.18-.09.35-.08.5-.09.55.31.03,2.58-.16,5.16-.14,7.74.02,1.37-.11,1.53,1.32,1.28,3.87-.69,8-2.35,11.81-2.94.22-.04.44-.03.66-.02-.02,4.02.02,8.04,0,12.07,0,2.89-.1,5.85-.1,8.73,0,2.63.11,5.4,0,8.01,0,.11.07.34-.09.32v-10.65c.05-6.1-.04-12.2,0-18.3-.16,0-.32,0-.48.03-3.7.54-7.9,2.13-11.66,2.9-.41.08-1.49.44-1.6-.16-.13-.69,0-2.17,0-2.95.05-.94.09-1.91.09-2.91,0-.44.1-3.23,0-3.37h-.18,0Z"/><path class="cls-3" d="M48.52,63.39c-.5.3-1.74.89-2.09,1.23-.08.08-.18.13-.18.27v18.07c-.09.92-.08,1.88,0,2.82.02.04.06.06.09.09-.03,0-.23.27-.27-.22v-20.76c.08-.38,1.69-1.22,2.1-1.45.09-.05.29-.25.36-.05,0,0,0,0,0,0Z"/><path class="cls-6" d="M73.28,54.74c-.02,1.63.24,3.44.09,5.06-.05.55-.2.57-.61.84-.66.45-2.12,1.3-2.84,1.62-.53.24-.6.23-.65-.37-.08-1.18-.11-3.3,0-4.46,0-.14,0-.25.07-.38.17-.38,3.34-2.02,3.93-2.3h0Z"/><path class="cls-2" d="M65.63,59.11v5.58c-.47.22-3.46,2.11-3.69,2.07-.06,0-.14-.15-.14-.23,0-1.48-.23-3.17-.09-4.65.07-.78.39-.84.98-1.21.27-.17,2.84-1.69,2.94-1.56Z"/><path class="cls-6" d="M58.16,69.03c-1.1.48-2.26,1.45-3.33,1.9-.16.07-.3.13-.49.1,0-.23-.08-.45-.09-.68-.07-1.16-.11-3.15,0-4.29.04-.39.11-.52.43-.75.92-.67,2.23-1.17,3.21-1.79.09-.09.27.04.27.1v5.42h0Z"/><path class="cls-4" d="M46.24,85.78c-.17-.3-.1-1.85-.09-2.32,0-.16-.05-.4.09-.5v2.82h0Z"/><path class="cls-6" d="M31.96,64.43s.11-.24.14-.23l3.68,2.15c.1.14.09.28.11.44.11,1.2.09,3.35,0,4.56,0,.17-.05.33-.1.49-1.29-.63-2.63-1.31-3.82-2.14v-5.28h0Z"/><path class="cls-6" d="M42.15,75.41c-.16.17-3.23-1.72-3.67-1.91-.18-.18-.23-.43-.26-.69-.15-1.64.17-3.41.1-5.06.05-.05.68.28.79.35.73.38,1.98,1.02,2.61,1.49.08.05.42.36.42.39v5.42h0Z"/><path class="cls-6" d="M29.13,67.99c-.02.08-.18.18-.27.1-.97-.55-2.09-1.02-3.03-1.62-.41-.27-.57-.31-.61-.84-.11-1.17-.07-3.18,0-4.37.02-.23.1-.45.09-.68.16-.03.27.05.4.1,1.02.44,2.11,1.36,3.17,1.81.05.06.25.3.25.32v5.19h0Z"/><path class="cls-4" d="M31.5,56.01c0-.81,0-1.61,0-2.42,0-.16-.05-.4.09-.5,0,.81,0,1.61,0,2.42,0,.16.05.4-.09.5Z"/><path class="cls-4" d="M12.11,71.74v4.25s.02.08.05.11l35.94,23.31s.57.6,1.23,0,34.06-22.34,35.56-23.32c.04-.02.05-.06.05-.1v-4.45c0-.1-.11-.16-.2-.11l-35.96,22.53s-.09.03-.14,0l-36.35-22.33c-.09-.05-.2,0-.2.11Z"/><path class="cls-7" d="M13.38,71.71l6.65-3.96v3.84l27.56,16.03,30.13-17.96v-1.53l5.85,3.41c.24.14.25.49.01.63l-34.24,21.4c-.38.24-.85.24-1.23,0l-34.74-21.33c-.2-.12-.19-.42.01-.53Z"/></svg>