<?xml version="1.0" encoding="UTF-8"?><svg id="Calque_1" xmlns="http://www.w3.org/2000/svg" viewBox="0 0 100 100"><defs><style>.cls-1{fill:#111312;}.cls-2{fill:#121312;}.cls-3{fill:#f1f2f4;}.cls-4{fill:#a91c11;}.cls-5{fill:#eff1f3;}</style></defs><path class="cls-1" d="M50.17,28.18l.27-.1c.73.33,3.64,1.82,3.98,2.34.69,1.05-.31,1.55-1.2,1.82.04,1.13.06,2.27.04,3.4,0,.24-.05.51-.33.48l-.15.25c-.25.08-1.13.37-1.23.53s-.08,3.86,0,4.05l10.24,5.8.18-8.8.23-.29c-.31-.54.75-.83,1.21-.83.53,0,1.37.25.99.83.11.08.19.13.24.26l-.05,3.27c.75-.69,1.45-1.42,2.12-2.19l.34-.02c.11-.33,1.42-.21,1.54.11-1.16,1.88-2.73,3.49-4.06,5.26.08.73-.23,3.75.08,4.17.16.22,1.87,1.17,2.25,1.39,5.1,2.99,10.4,5.66,15.51,8.64.4.19.4-.24.6-.4.31-.25.8-.26.73-.82v-16.98c-.03-.08-.46-1.11-.5-1.16-.24-.29-1.29-.58-1.43-1.21l-1.18-6.21c-.13-.31-.87-.32-.87-.9,0-.68.88-.6,1.01-.79.08-.12.1-.47.19-.67.36-.81.8-1.47,1.53-2,.27-.19,1.26-.61,1.31-.68.24-.4-.28-2.07.75-1.96.91.1.29,1.55.56,1.96.08.12.6.2.8.31.7.36,1.26.85,1.67,1.53.19.31.55,1.4.63,1.47.25.24.9.04.95.71.06.84-.65.67-.78.91-.56,1.85-.59,4.18-1.15,5.99-.36,1.16-1.23,1.08-1.61,1.59-.04.05-.41,1.02-.43,1.12v17.28c.42.22.91.56,1.04,1.06s.06,1.95.32,2.21l11.6,6.53c.35.43.04,3.35.12,4.08l-.57.42-43.95,24.61-.59.06c-17.04-10.23-33.96-20.7-51.03-30.88l-.21-.23c-.14-.29-.14-3.29-.08-3.78.02-.21.05-.4.23-.54,3.65-2.13,7.33-4.24,11.13-6.08l-.03-19.09c-.71-.45-2-.76-1.55-1.87l14.21-15.36.61-.08c4.74,1.61,10.07,2.17,14.53,4.44,3.08,1.56,6.21,3.35,9.26,5.02l-.02.02Z"/><path class="cls-4" d="M68.58,39.1c-.23,0-1.42-.07-1.54-.11-.07.07-.14.07-.22.06-.12-.01-1.93-.91-2.23-1.07l-.19-.31c-.12-.79-1.32-.7-1.87-.38-.17.1-.29.35-.34.38-.32.63-1.38.87-2.08,1.02-2.64.57-5.61-.28-7.33-2.32l.15-.24c0-.07.11-.28.11-.49,0-1.17-.02-2.35,0-3.52.05-.17,2.02-.39,1.22-1.56-.34-.49-3.33-1.96-4.08-2.37-.56-1.12-1.55-1.85-2.11-3.01-1.89-3.88-.37-9.11,3.8-10.68.47-.18,2.1-.39,2.22-.53.14-.16.29-2.01.44-2.54,2.35-8.01,13.64-8.92,17.35-1.25.89,1.84.94,3.54.95,5.56.11.23.96.36,1.27.5,4.89,2.14,6.41,8.44,3.02,12.61-.32.4-1.68,1.56-1.76,1.88-.07.27.16.74.17,1.05.19,4.12-2.8,7.28-6.94,7.33h0Z"/><path class="cls-5" d="M51.27,42.51l10.79,5.97c-.11,1.69-.06,3.54-.33,5.21-.12.72-.68,1.67-.48,2.27.47,1.38,4.51,1.23,4.11-.58-.06-.28-.39-.55-.48-.85-.08-.26-.12-.75-.16-1.05-.14-1.11-.15-2.35-.06-3.47l17.9,9.94-.31,4.78c-.04.22-.59.51-.76.9-.83,1.96,1.87,2.77,3.34,2.68,1.39-.08,3.56-1.11,2.58-2.79-.16-.27-.67-.58-.73-.81-.1-.36-.17-1.58-.19-2.02,0-.1-.16-.13.11-.11l9.53,5.24c-14.22,8.13-28.62,15.97-42.88,24.04l-.25.03L3.54,61.76l6.76-3.81c.33.59.96.91,1.51,1.27,5.27,3.47,11.05,6.42,16.34,9.9l.77.06,25.96-12.79c.34-.56.11-1.16.13-1.8.03-.7.33-1.82-.06-2.47-.43-.71-2.96-1.65-3.68-2.27v-7.33h0Z"/><path class="cls-5" d="M21.73,61.14c-.17.04-.26-.05-.39-.1-1.15-.51-2.94-1.72-4.09-2.41-.98-.59-1.98-1.16-2.9-1.84v-20.01c4.21,2.62,8.55,5.03,12.71,7.74l.57.08c7.32-3.33,14.39-7.18,21.63-10.67.51-.25,2.07-1.09,2.46-1.18.12-.03.22.08.22.12v2.2c0,.28-4.41,2.21-5,2.5-6.46,3.16-12.82,6.53-19.36,9.53-.43.07-1.61-.68-2.06-.93-1.07-.6-2.08-1.31-3.12-1.96-.18-.19-.66.27-.66.34v16.59h-.01Z"/><polygon class="cls-5" points="50.5 31.27 29.67 41.74 40.36 29.23 50.5 31.27"/><path class="cls-5" d="M54.03,52.77c-.21.79.02,1.87-.11,2.59-.02.12-.06.21-.18.26l-23.81,11.79c-.39.07-1.44.82-1.75.46-.23-.27-.38-2.25.24-2.41,8.5-4.3,16.98-8.67,25.61-12.7h0Z"/><path class="cls-5" d="M42.78,55.25c-.2,1.13-2.73,1.63-3.36.49l-.04-13.04c.02-.09.09-.12.16-.17.17-.13,2.83-1.46,3.02-1.51.12-.03.22.08.22.12v14.11h0Z"/><path class="cls-5" d="M28.23,48.13v14.72s-.37.36-.47.41c-.54.26-2.72.36-2.72-.41v-15.6c1.06.43,2,1.55,3.2.88h0Z"/><path class="cls-5" d="M35.4,44.72v14.61c0,.62-2.96,1.13-3.29.2v-13.36s3.29-1.45,3.29-1.45Z"/><path class="cls-5" d="M50.17,37.44v14.5c0,.61-2.96,1.12-3.29.2v-13.08c.07-.22,2.82-1.52,3.29-1.62Z"/><path class="cls-5" d="M86.99,32.37c-.4,1.49-.44,3.45-.91,4.88-.37,1.11-2.97,1.25-3.36,0l-.91-4.88c.13-.14,2.11,1.37,2.7,1.33.43-.03,2.39-1.45,2.48-1.33h0Z"/><path class="cls-2" d="M55.42,59.53s.02.18.1.18c.28,0,.7-.46,1.18-.32.41.12.6,1.69.47,2.08-.19.58-1.06.4-1.06,1.15,0,1.13.95-.35,1.4.04.19.16.44,1.84.38,2.16-.11.56-.97.45-1.08.79-.06.17.17,1.54.26,1.69.1.18.14.05.24.02.56-.2.78-.6,1.47-.41.4.11,1.56.91,1.27,1.38l-16.7,9.21c-.17.15-.52.11-.67.22-.29.2-.59,2.66-.9,3.18s-1.13.51-1.29,0c-.21-.69.73-3.02.86-3.84-1.03-1.27-.1-.96.34-1.43.24-.26-.28-1.6-.22-2.04-.12-.12-.89.55-1.25.43s-.62-2.1-.18-2.47c.63-.52,1.17-.09.88-1.38-.12-.14-.96.64-1.33.39-.26-.18-.41-1.83-.27-2.15.17-.37.94-.47,1.03-.74.12-.36-.22-.66.07-1.03.39-.49,1.28-.36,1.27.33h.16l12.39-6.52c-.23-.91.33-1.4,1.19-.93h-.01Z"/><path class="cls-2" d="M62.84,72.72l-13.45,7.33c-.14.12-.12.28-.11.44.05,1.38.59,2.99.67,4.41-.15.55-.9.8-1.3.36-.33-.35-.48-4.1-.71-4.37-.02-.02-.44-.12-.61-.22-.47-.28-1.58-.84-.92-1.4l17.06-9.4c.41.04,1.74.65,1.77,1.05.06.62-1,.66-1.08,1.09l.65,4.53c.03.82-1.11,1-1.39.29l-.58-4.1h0Z"/><path class="cls-2" d="M43.69,77.81l16.95-9.34c.41-.27,2.04.75,2.09,1.01.03.19-.32.41-.47.5l-16.72,9.19c-.54.22-2.22-.73-1.85-1.36h0Z"/><path class="cls-5" d="M55.46,66.32c-.06.52.52,1.6.11,1.92l-12.45,6.68-.32-2.08s12.66-6.52,12.66-6.52Z"/><path class="cls-3" d="M42.34,70.29l-.1-.87,12.22-6.36c.42-.13.59.82.15.93-4.13,2.02-8.11,4.35-12.27,6.3h0Z"/></svg>