<?xml version="1.0" encoding="UTF-8"?>
<svg id="Calque_1" xmlns="http://www.w3.org/2000/svg" version="1.1" viewBox="0 0 100 100">
  <!-- Generator: Adobe Illustrator 29.8.3, SVG Export Plug-In . SVG Version: 2.1.1 Build 3)  -->
  <defs>
    <style>
      .st0 {
        fill: #faf8f8;
      }

      .st1 {
        fill: #b70201;
      }

      .st2 {
        fill: #f9f9f8;
      }

      .st3 {
        fill: #20201d;
      }

      .st4 {
        fill: #bb0201;
      }

      .st5 {
        fill: #faf6f6;
      }

      .st6 {
        fill: #f7f7f6;
      }

      .st7 {
        fill: #1e1e1c;
      }

      .st8 {
        fill: #1f1f1d;
      }

      .st9 {
        fill: #1d1d1b;
      }

      .st10 {
        fill: #20201e;
      }

      .st11 {
        fill: #f5f5f5;
      }

      .st12 {
        fill: #ba0201;
      }

      .st13 {
        fill: #b80201;
      }
    </style>
  </defs>
  <path class="st9" d="M31.81,41.66l-.3,1.75L3.43,57.06c15.45,8.06,30.92,16.05,46.42,24.02,13.87-6.94,27.66-14.18,41.47-21.3,1.68-.87,3.4-1.73,5.11-2.49l-26.4-14.96c-.33-.37.12-1.2,0-1.68l29.3,16.12c.12.09.11.21.12.34.07.6.09,3.06,0,3.6-.05.29-.27.4-.5.55-1.84,1.24-5.23,2.63-7.35,3.67-13.75,6.81-27.57,13.46-41.28,20.33l-.46.11L.5,60.98v-4.25s31.31-15.07,31.31-15.07Z"/>
  <path class="st8" d="M42.75,32.54l3.33-1.45c-.28,1.53,1.84,1.96,2.99,2.15,1.45.24,5.79.2,6.72-1.06.35-.13.02-1.06.36-.94.26.09.57.45.84.61.32.18,2.08.95,2.11,1.07-.04.24-.13.46-.13.71-.03,1.41-.22,3.18-.14,4.51.14,2.56.63,5.83.28,8.39-.1.7-.82,1.56-.84,2.03,0,.21.13.46.13.73,0,1.69.02,3.36.1,5.04-.29,1.4-3.05,2.58-4.38,2.58-.33-3.31-2.98-5.66-6.31-5.52.79-4.03.27-8.15-2.6-11.23-.3-.32-1.19-.88-1.31-1.16-.18-.45,1.04-.04,1.16,0,.86.34,1.76,1.5,2.2,2.29.22.4.5,1.49.56,1.55.01.01.31.05.29-.07-.41-2.68-2.42-5.07-5.36-4.57v-5.65Z"/>
  <path class="st7" d="M33.77,47.61c-.8-2.51-1.31-4.83-.17-7.34,2.9-6.41,10.7-1.45,12.76,3.09,1.56,3.44,1.6,11.46-3.25,12.07-1.3.16-3.84-.84-4.64-1.87-.27-.35-.01-1.05.37-1.24s1.05.13,1.63.04c5.08-.8,1.77-11.37-3.12-10.37-.99.2-1.81,1.33-2.09,2.25-.44,1.43.31,2.59-1.49,3.36Z"/>
  <path class="st13" d="M42.17,59.35l.37.18c.33.8.66,1.61.98,2.42l-.19.3c-1.57,0-2.86-.18-4.3-.84-3.16-1.47-5.19-4.81-4.25-8.28-.29-.06-.34.13-.46.33-.46.72-.41,1.88-.4,2.71-.34-.07-1.61.13-1.76-.08-.48-.69-.12-3.13.09-3.98.8-3.28,3.39-4.85,6.01-6.59-.28-.41-.64-.12-1.01-.07.16-1.32,1.43-1.4,2.39-.73,1.26.88,1.73,2.79,1.49,4.24-.35,2.04-1.31.88-1.99,1.19-.57.26-1.83,2.24-2.06,2.87-.96,2.71.79,5.79,3.64,6.27.53.09.97.02,1.46.07Z"/>
  <path class="st8" d="M61.15,45.01c.64-.08,1.44-.26,2.03-.51,5.16-2.18,2.03-12.43-3.76-10.36-.26-.5.02-1.25-.36-1.6-.16-.15-.46-.05-.36-.35.27-.79,2.16-1.54,2.97-1.54,4.42,0,7.43,5.86,7.18,9.8-.29,4.58-3.44,8.04-7.69,4.56Z"/>
  <path class="st1" d="M48.52,19.25c2.24-.18,8.93-.24,10.27,1.82.55.84.48,2.12-.25,2.83-2.28,2.21-12.81,2.18-15.04-.15-.51-.53-.56-1.13-.44-1.86.3-1.88,3.91-2.52,5.47-2.65Z"/>
  <path class="st12" d="M43.91,62.97l.85.05c.31.79.78,1.43,1.43,1.91l.04.36c-.48.22-.86.49-1.42.68-3.1,1.06-6.26,1.19-9.45.48.3-1.21.11-2.43-.14-3.62.16-.14,2.02.38,2.41.42.16.02.52.13.49-.13-1.77-.48-3.47-1.82-4.49-3.33.59.25.99-.67,1.25-.72.24-.04,1.73,1.65,2.09,1.93,1.88,1.48,4.58,2.11,6.94,1.97Z"/>
  <path class="st3" d="M59.71,44.71l-.42-9.47c.06-.17,1.14-.46,1.39-.49,3.63-.49,5.17,4.98,3.72,7.63-.9,1.64-3.11,1.73-4.69,2.33Z"/>
  <path class="st7" d="M50.87,63.84c.3-.48.8-.81,1.16-1.24.25-.3.53-.99.74-1.15.27-.21,2.34-.48,2.95-.67,1.01-.32,2.72-1.15,3.41-1.95.1-.12.42-.5.22-.65-1.79,1.19-3.85,2.21-6.02,2.24.25-.93.72-1.81.75-2.8,2.07-.49,4.92-1.35,4.98-3.94,1.56,1.01,1.68,4.04,1.53,5.73-.18,1.91-2.55,3.25-4.21,3.76-.56.17-2.35.65-2.83.65h-2.68Z"/>
  <path class="st13" d="M46.23,54.71c.17.47.92.03,1.38,0,2.9-.17,3.39,2.94,1.87,4.91-1.1,1.43-2.99,2.21-4.7,2.48-.64.06-1.12.03-1.31-.65-.17-.78-.48-1.45-.86-2.1v-1.59c.8.64,1.06,1.83,2.32,1.3-.54-.37-2.58-2.13-1.74-2.83.06-.05,1.25-.45,1.32-.44.5.11,1.3,1.42,2.16,1.09l-1.45-1.38c.32-.36.71-.56,1.01-.94.08.04.08.09,0,.14Z"/>
  <path class="st10" d="M52.6,26.02v3.26c0,.29.69.04.93.07.27.03,1.08.2,1.24.37.34.34.41,1.69.06,2.1-.81.97-5.93.87-7.06.26-1-.53-.11-1.61-.19-2.44.63-.22,1.41-.51,1.97.01-.07-.19.15-.43.15-.51v-3.12c.9.2,2,.26,2.9,0Z"/>
  <path class="st13" d="M47.39,64.71c-.91.32-2.51-1.01-2.46-1.88,2.45-.41,5.04-1.7,5.91-4.16,1.12-3.19-1.65-6.05-4.6-3.95v-.14c.85-1.06.54-2.02,2.25-1.88,1.98.16,3.87,1.69,4.11,3.71.44,3.66-2.3,6.6-5.2,8.32Z"/>
  <path class="st4" d="M31.99,61.84c1.15-.26,1.89.61,2.05,1.65.12.74.25,2.55-.12,3.18-.32.53-1.48.78-2.03.42-1-.66.08-1.68,0-2.59-.07-.69-1.68-2.26.11-2.66Z"/>
  <path class="st13" d="M44.92,62.83c.64.8,1.43,1.61,2.46,1.88-.46.27-.7.37-1.16.58-.6-.31-1.06-.86-1.39-1.44-.36-.64.06-.69-.93-.88.3-.02.71-.09,1.01-.14Z"/>
  <path class="st13" d="M42.61,59.35c1.31.3.59,2.84,2.17,2.75-.54.08-.84.14-1.45.14l-1.16-2.9c.14.01.32-.03.43,0Z"/>
  <path class="st6" d="M56.69,32.29c.48-.29.51.29.33.69-.43.96-3.91,1.54-4.92,1.6-1.49.1-6.82-.25-7.47-1.82-.1-.25.1-.2.18-.25.75-.47.7.14,1.27.53,2.08,1.41,8.36,1.22,10.36-.35.13-.11.19-.37.24-.4Z"/>
  <path class="st2" d="M42.79,42.58c1.04-1.04,2.79,3.09,1.61,3.29-.19.03-.31-.16-.41-.29-.18-.24-1.35-2.47-1.35-2.65,0-.1.07-.27.14-.35Z"/>
  <path class="st11" d="M35.87,39.54c.09,0,.39.3.43.4.36.78-1.34,2.22-1.64,1.19-.19-.64.68-1.63,1.21-1.59Z"/>
  <path class="st0" d="M57.39,22.26c-.33.61-1.04.82-1.66,1.02-2.66.83-7.23.86-9.82-.18-.44-.18-1.87-.85-.62-.99.83-.09,2.98-.05,3.77.16.07.02,1.32.6,1.38.64.28.21-.02.72.8.67.65-.04.38-.47.73-.73.07-.05,1.16-.54,1.31-.58,1.35-.39,2.75,0,4.12-.01Z"/>
  <path class="st5" d="M57.24,21.53h-4.13s-.28-.31-.47-.4c-.6-.28-1.06-.05-.91-1.05,1.46-.02,3.17.05,4.53.61.37.15.98.35.98.83Z"/>
  <path class="st5" d="M50.43,20.08c.12,1.23-.08.67-.69.98-.22.11-.37.38-.57.44-1.08.32-3.08-.18-4.24-.12.3-1.02,5.28-1.54,5.51-1.3Z"/>
</svg>