<?xml version="1.0" encoding="UTF-8"?><svg id="Calque_1" xmlns="http://www.w3.org/2000/svg" viewBox="0 0 100 100"><defs><style>.cls-1{fill:#7e0101;}.cls-2{fill:#010202;}.cls-3{fill:#9e2114;}.cls-4{fill:#f0f2f4;}.cls-5{fill:#131414;}.cls-6{fill:#131415;}.cls-7{fill:#9d2014;}.cls-8{fill:#f1f2f4;}.cls-9{fill:#eef1f3;}.cls-10{fill:#eff1f3;}</style></defs><path class="cls-5" d="M36.06,10.42c.02-.1.16-.36.23-.44L53.69.14c.71-.45,1.6.3,2.28.67,5.65,3.07,11.13,6.46,16.75,9.6l.28.39c.21,13.57-.18,27.16-.04,40.74l26.03,15.53.08.18c-.13,1.28.14,2.79,0,4.04-.03.28-.1.5-.35.66l-45.92,27.73-.54.24c-7.44-4.49-14.69-9.3-22.04-13.94-9.76-6.17-19.59-12.23-29.31-18.45-.1-.2-.12-3.98-.06-4.44.01-.12,0-.25.12-.33l15.01-8.82c-.04-5.58.11-11.17.02-16.75,0-.73-.37-2.88.06-3.41l17.17-10.18c.96-.25,1.97.86,2.83,1.21v-14.41.02Z"/><path class="cls-10" d="M53.99,21.01l.11.04-.11,40.24c.19.17.33.14.56.09.22-.1.66-.29.68-.5l.1-39.89,16.48-9.16v47.36c0,.42-2.37,1.64-2.8,1.96.06.23-.03.31-.26.25-.79-.63-1.63-1.05-2.5-1.28-1.2.29-2.35.84-3.44,1.64l-.16.4c.03.4.02,1.41-.47.88-.37-.16-.35-1.54,0-1.74l-.23-.11c-.11-.92-1.44-1.77-2.31-1.63-.8.12-3.77,1.95-4.56,2.46-2.45,1.56-2.63,2.28-2.76,5.28-1.38.9-2.8,1.73-4.26,2.5-.75.46-1.43.99-1.47,1.92-.02,4.08-.03,8.16-.03,12.24.02.91.23,1.2.93,1.73.87.65,2.96,2.03,4,1.68,6.08-3.36,12.12-6.86,18.12-10.49.12-.32.3-.48.52-.5.12-4.7.12-9.4,0-14.13-.3.09-.39-.08-.22-.34,1.06-.5,2.08-1.15,3.03-1.85v-6.89l23.77,14.24-44.69,26.67L2.88,63.32l11.81-7.03c.26-.16,1.17-.55,1.3-.13-.05.71-.37,2.26.18,2.73l14.72,8.72,6.13-3.57,9.2,5.34c.35-.21,1.21-.62,1.29-1.03l-.02-8.61c-.05-.17-.35-.4-.5-.51-.63-.46-3.92-2.44-4.53-2.65-.19-.07-.78-.13-.78.11v8.3s-.16.22-.22.11l-4.04-2.47V11.48l16.59,9.53h-.02Z"/><path class="cls-3" d="M70.14,76.39c-.06.2-.25.53-.39.68-5.7,3.2-11.36,6.95-17.14,9.99-.63.33-1.16.74-1.91.64-.51-.06-2.96-1.53-3.47-1.92-.56-.42-.8-.77-.86-1.49-.35-4,.28-8.51,0-12.56.09-.96.51-1.38,1.25-1.89,1.4-.97,3.13-1.64,4.53-2.64.1-1.31.02-2.76.84-3.87.64-.87,4.28-2.86,5.42-3.44.3-.15.85-.49,1.15-.53,1.06-.16,2.63.82,2.63,1.95v1.74c.38.09.2-.62.25-.93.04-.19.11-.39.25-.54,1.25-.59,2.62-2.02,4.1-1.62.44.12,1.51.9,1.96,1.19.15.1.27-.02.28,0,0,0-.03.15.08.22.22.16.65.39.82.56.05.05.2.27.22.34.12,4.71.12,9.41,0,14.13h-.01Z"/><path class="cls-10" d="M30.34,42.42v23.32c-4.39-2.56-8.8-5.11-13.12-7.79v-23.04l13.12,7.51Z"/><path class="cls-9" d="M31.57,65.63v-23.32l4.37-2.52c.06-.11.22.1.22.11v22.76l-4.6,2.97h.01Z"/><path class="cls-2" d="M53.99,21.01l.22-.06-.11,40.36.45.06c-.22.1-.41.26-.67.22,0,0,.11-40.58.11-40.58Z"/><path class="cls-5" d="M62.25,49.73c.28.02.35.25.38.48.13.94.09,3.51,0,4.49-.07.78-.22.8-.83,1.19-.38.24-3.17,1.82-3.36,1.76-.25-.07-.28-.5-.3-.71-.07-.78-.08-4.31.18-4.88.21-.46,3.38-1.83,3.94-2.34h0Z"/><path class="cls-5" d="M62.15,40.2c.37-.07.45.31.48.6.11.98.08,3.03,0,4.04-.04.56-.06.93-.53,1.27-.68.49-2.5,1.51-3.29,1.87-.41.19-.61.22-.68-.33-.12-.96-.09-3.38,0-4.38.09-1.06.45-1.04,1.27-1.53.89-.54,1.85-.97,2.73-1.54h.02Z"/><path class="cls-5" d="M47.11,40.08c1.07.73,2.53,1.28,3.55,2.03.39.29.48.45.53.93.09,1.02.13,3.62,0,4.61-.06.42-.23.59-.64.41-.69-.29-2.4-1.32-3.05-1.77-.48-.33-.63-.35-.69-.99-.09-1.03-.13-3.73,0-4.72.03-.23.08-.38.3-.49h0Z"/><path class="cls-5" d="M40.28,36.27c.16-.04.21.04.32.09.74.33,2.27,1.28,2.96,1.76.51.35.74.43.8,1.11.1,1.06.12,3.58,0,4.61-.06.49-.33.47-.76.3-.55-.21-2.38-1.33-2.89-1.7-.54-.4-.66-.45-.73-1.18-.09-.98-.13-3.56,0-4.49.03-.19.08-.43.31-.49h-.01Z"/><path class="cls-5" d="M65.09,19.61c.03-.14.27-.4.41-.49l3.59-2.02c.31-.05.36.52.38.71.1,1.07.1,3.2,0,4.27-.05.51-.1.74-.53,1.04-.34.24-3.37,1.93-3.57,1.93-.11,0-.27-.11-.27-.17v-5.27h0Z"/><path class="cls-5" d="M47,49.83c.15-.05.32,0,.46.08.57.57,3.3,1.71,3.6,2.23.1.18.12.44.14.65.08,1.01.13,3.42,0,4.38-.05.42-.25.59-.67.44s-2.9-1.62-3.25-1.91-.42-.43-.46-.88c-.1-1.07-.12-3.57,0-4.61.02-.15,0-.32.19-.38h-.01Z"/><path class="cls-5" d="M65.09,29.25c.06-.3.51-.55.75-.71.97-.66,2.25-1.2,3.29-1.77.23.1.31,1.05.33,1.35.06.87.05,2.04,0,2.92-.02.34-.07,1.24-.26,1.48l-3.66,2.11c-.13.11-.45,0-.45-.12v-5.27h0Z"/><path class="cls-5" d="M51.05,23.17c.14.17.13.38.15.58.09,1.04.13,3.62,0,4.61-.03.24-.1.46-.38.48l-3.59-2.02c-.34-.19-.38-.46-.42-.82-.09-1-.13-3.53,0-4.49.04-.34.19-.58.57-.45l3.67,2.12h0Z"/><path class="cls-5" d="M40.1,26.74c.15-.11.5.08.67.15.7.31,2.25,1.25,2.9,1.7.48.33.63.35.69.99.1,1.07.12,3.57,0,4.61-.06.46-.23.46-.65.3-.35-.14-3.04-1.71-3.32-1.95-.3-.25-.38-.55-.41-.93-.11-1.11-.08-3.14,0-4.27,0-.13.06-.56.13-.6h0Z"/><path class="cls-5" d="M40.37,17.13c.23,0,3.8,2.15,3.92,2.43-.04,1.53.26,3.51.06,4.99-.05.36-.17.56-.53.41-.5-.19-1.67-.96-2.2-1.28-.81-.5-1.55-.65-1.65-1.71-.05-.52-.06-4.46.06-4.66.05-.08.24-.18.34-.18Z"/><path class="cls-5" d="M62.15,21.03c.36-.07.45.31.48.6.11.94.1,3.32,0,4.26-.04.32-.14.74-.41.94-.49.17-3.53,2.08-3.74,1.98-.16-.07-.21-.28-.23-.45-.13-1.01-.1-3.56,0-4.61.04-.41.07-.57.41-.82.98-.71,2.45-1.2,3.49-1.91h0Z"/><path class="cls-5" d="M47.11,30.55c.18-.03,2.86,1.58,3.21,1.81.53.35.81.46.87,1.15.09,1,.13,3.53,0,4.49-.05.37-.16.54-.53.42-.5-.17-1.89-1.07-2.42-1.4-.67-.42-1.35-.61-1.43-1.49-.09-.98-.13-3.56,0-4.5.02-.18.1-.46.3-.49h0Z"/><path class="cls-5" d="M44.23,53.85c-.1.07-.31,0-.43-.05-.5-.18-1.86-1.08-2.39-1.42-.37-.23-1.18-.63-1.34-1.02-.18-.45-.14-4.03-.09-4.74.04-.54.07-.77.67-.55.47.17,2.71,1.52,3.18,1.86.16.12.36.27.44.46.18.46.14,4.13.09,4.85,0,.12-.06.56-.13.6h0Z"/><path class="cls-6" d="M62.51,36.09c0,.08-.13.22-.2.28l-3.61,2.08c-.48.17-.54-.32-.57-.68-.09-1.05-.09-2.99,0-4.05.02-.23.07-.64.18-.83.28-.48,3.24-1.7,3.83-2.23.12-.09.37.07.37.15v5.27h0Z"/><path class="cls-5" d="M69.35,51.34c-.03.15-.27.39-.41.49-.59.44-2.67,1.64-3.34,1.93-.36.15-.47-.03-.51-.4-.13-.98-.1-3.7,0-4.72.06-.59.31-.63.76-.92.97-.65,2.16-1.15,3.14-1.79.12-.09.37.07.37.15v5.27h0Z"/><path class="cls-5" d="M65.09,38.89c.02-.11.24-.36.34-.44.56-.45,2.35-1.4,3.06-1.76.12-.06.86-.52.86-.15v5.27s-.43.42-.52.49c-.32.23-3.26,1.93-3.46,1.93-.11,0-.28-.11-.28-.17v-5.16h0Z"/><path class="cls-1" d="M70.14,76.39v-14.13c.07.17.14.31.12.5-.23,4.22.28,8.72,0,12.9-.02.27-.04.47-.12.72h0Z"/><path class="cls-4" d="M58.28,77.48c-.36-.34-.23-1.3-.25-1.76-2.31.83-4.62,1.99-7.02,2.57-.21.05-.14,0-.16-.15s-.03-.87,0-.94l7.05-2.31c.26-.22-.11-1.39.51-2.06.19-.21,2.56-1.56,2.84-1.64,1.18-.32.82.65.96,1.4,2.36-1.49,4.59-3.19,6.67-5.04-.09.31.1.84.07,1.07-.04.28-3.9,3.17-4.45,3.57-.33.24-2.22,1.41-2.29,1.52-.29.47.28,1.51-.61,2.42-.26.26-2.23,1.37-2.58,1.46-.24.06-.57.09-.76-.09v-.02Z"/><path class="cls-8" d="M54.44,66.02c.24-1.47,4.08-2.87,5.22-3.75.29-.09.19.89.09,1.02l-4.81,2.68c-.39.44.09,1.3-.5,1.69.06-.5-.08-1.15,0-1.63h0Z"/><path class="cls-5" d="M19.99,40.09c.17-.03,2.21,1.19,2.5,1.39.54.38.62.39.69,1.11.05.49.05,3.74-.06,3.98-.03.07-.17.21-.24.22-.18.03-2.71-1.58-3.05-1.86.04-.78-.09-1.57-.11-2.34,0-.2.1-.42.1-.67,0-.39-.4-1.73.17-1.83Z"/><path class="cls-5" d="M25.25,51.51c.18-.03,2.91,1.64,3.02,2,.13.41.13,3.68.06,4.22-.02.18-.09.44-.3.48-.19.03-2.85-1.54-3.04-1.97.09-1.31-.2-2.98-.03-4.24.02-.18.1-.46.3-.49h-.01Z"/><path class="cls-5" d="M25.14,43.1c.14-.05.25,0,.37.05.28.1,2.65,1.59,2.73,1.76.14.3.15,3.88.09,4.41-.06.47-.25.46-.65.3-.28-.11-2.15-1.23-2.38-1.43-.29-.25-.31-.41-.35-.77-.08-.92-.11-3.04,0-3.93.02-.15,0-.32.19-.38h0Z"/><path class="cls-5" d="M19.8,48.59c.2-.02.36,0,.55.06.32.11,2.07,1.17,2.4,1.41.29.21.37.36.41.71.11.94.06,2.73,0,3.71-.02.39,0,.88-.48.7l-2.89-1.82v-4.76h0Z"/><path class="cls-7" d="M58.93,76.62v-3.08c.64-.31,1.5-1.01,2.13-1.23.12-.04.22.08.22.11v2.8c0,.21-2,1.29-2.35,1.4Z"/></svg>