<?xml version="1.0" encoding="UTF-8"?>
<svg id="Calque_1" xmlns="http://www.w3.org/2000/svg" version="1.1" viewBox="0 0 1145.74 1425.13">
  <!-- Generator: Adobe Illustrator 29.8.3, SVG Export Plug-In . SVG Version: 2.1.1 Build 3)  -->
  <defs>
    <style>
      .st0 {
        fill: #ef0c0c;
      }

      .st1 {
        fill: #231e20;
      }
    </style>
  </defs>
  <path class="st1" d="M138.96,558.59V211.9s0-28.63,39.91-28.17l234-.46-273.91,375.33Z"/>
  <path class="st1" d="M1009.12,888.06l-.85,1.89v244.8s0,28.63-39.91,28.17l-82.79.16V183.26h94.07s28.63,0,28.17,39.91l1.31,664.89Z"/>
  <polygon class="st1" points="498.18 183.26 138.96 679.11 138.96 848.16 615.57 183.26 498.18 183.26"/>
  <rect class="st1" x="138.96" y="1054.77" width="531.39" height="108.62"/>
  <path class="st0" d="M160.88,953.81s86.35,29.33,129.13-32.87c32.72-47.57,445.7-615.78,445.7-615.78,0,0-1.9,361.94-1.4,417.47.06,6.37-4.77,18.54-8.9,23.38-6.8,7.97-16.71,12.3-36.26,12.93-58.85,1.91-197.78,2.87-197.78,2.87,0,0,2,82.28,64.22,81.78l171.13.39.78,486.78s93.68,8.39,93.68-61.26l-.55-55.09c-2.37-51.2.55-1031.15.55-1031.15h-88.98c-18.43,1.39-34.12,16.97-44.84,32.03L160.88,953.81Z"/>
</svg>