<?xml version="1.0" encoding="UTF-8"?><svg id="Calque_1" xmlns="http://www.w3.org/2000/svg" viewBox="0 0 100 100"><defs><style>.cls-1{fill:#111;}.cls-2{fill:#a9050b;}.cls-3{fill:#fefefe;}</style></defs><path class="cls-1" d="M49.37,14.06c.2-.03.39-.05.58-.02,10.87,5.26,21.56,10.9,32.33,16.38,1.14.76.86,1.79-.28,2.34-10.02,4.92-19.69,10.59-29.72,15.48-1.39.68-2.17,1.24-3.76.55l-31.4-16.17c-.74-.49-1.03-1.16-.45-1.93,9.8-5.01,19.57-10.13,29.41-15.07.72-.36,2.63-1.47,3.28-1.57Z"/><path class="cls-1" d="M28.35,40.77c6.79,3.28,13.45,6.82,20.19,10.2,1.12.41,1.92.27,2.96-.21,5.99-2.73,11.79-6.37,17.78-9.16.14-.05.61-.23.71-.22.24.03.05.24.05.26v3.2c0,.23,1.82,1.28,2.14,1.48,7.31,4.47,14.91,8.53,22.29,12.9.99.59,3.77,2.02,4.42,2.7.14.14.29.29.34.49.06.29.11,1.07.13,1.42.11,2.06.11-1.52.11.57,0,1.01.18,1.1-.07,2.12-.22.91-1.71,1.44-2.5,1.94-13.78,8.64-27.75,17.46-41.6,25.98-1.41.87-3.32,2.34-4.72,3.02-.45.21-.95.36-1.41.11-16.2-10.16-32.64-20.55-48.82-30.73-.34-.37-.47-1.31-.47-1.8-.02-2.81-.13.5.11-2.22.03-.31.1-.8.31-1.03l28.08-16.51c.14-.09,0-.17,0-.2v-4.28Z"/><path class="cls-3" d="M71.64,48.61l22.45,13.08c.7.41.71,1.41.02,1.83l-43.91,27.14c-.34.21-.78.21-1.12,0L5.1,63.52c-.69-.42-.67-1.42.02-1.83l21.62-12.61c.71-.41,1.6.1,1.6.92h0c0,4.43,7.61,6.68,11.02,7.45,7.52,1.7,16.21,1.67,23.5-1,2.12-.77,7.17-3.15,7.17-5.83v-1.08c0-.82.89-1.34,1.6-.92Z"/><path class="cls-2" d="M51.77,72.45c-.19.2,1.24,2.95,1.32,3.48.29,2.04-2.56.06-3.22.13-.81.08-1.44,1.51-1.99,1.63-.51.11-.78-.11-.91-.59-.28-1.03-.32-2.44-.56-3.52-.61.44-2.3,3.33-2.84,3.41-.91.13-1.03-2.05-1.59-2.32-.6-.29-2.6.18-2.94-.15-.77-.76,1.38-2.21,1.92-2.62.42-.32.87-.57,1.3-.86.09-.06.19.02.13-.23-2.77-.2-5.54-.54-8.31-.72-1.92-.13-3.86-.22-5.77-.31-1.14-.06-3.22.14-4.21-.33-1.05-.5-1.44-2.36-1.52-3.43-.2-2.65.33-6.66,2.43-8.51.38-.34,1.63-1.27,2.07-1.34.7-.1,1.19.11,1.82.33,1.31.45,2.63,1.14,3.95,1.63,9.98,3.73,22.06,5.46,32.72,5.06,1.5-.06,3.07-.36,4.53-.42,1.05-.04,1.93.02,2.55.96,2.06,3.16-.03,10.84-2.91,13.13-.97.77-1.9.66-3.04.35-2.32-.62-4.83-1.84-7.2-2.6-2.54-.82-5.13-1.48-7.71-2.14Z"/><path class="cls-3" d="M44.23,64c.24.36-.64,1.97-.77,2.46-.09.36-.17,2.01-.42,2.07-5.84-.76-11.72-1.25-17.61-1.45-.79-1.49-.48-3.64.06-5.19.44-1.27,1.18-2.16,2-3.18,1.6.61,3.15,1.35,4.76,1.94,3.9,1.43,7.95,2.39,11.98,3.34Z"/><path class="cls-3" d="M67.87,65.22c-1.53,2.81-1.61,5.99-2.17,9.08-4.15-1.6-8.39-2.91-12.71-3.95-.92-.22-2.53-.4-3.31-.72-.13-.05-.22-.11-.26-.25-.27-.9.63-4.34,1.72-4.52,5.55.56,11.15.77,16.73.36Z"/></svg>