<?xml version="1.0" encoding="UTF-8"?><svg id="Calque_1" xmlns="http://www.w3.org/2000/svg" viewBox="0 0 100 100"><defs><style>.cls-1{fill:#960606;}.cls-2{fill:#f4f5f6;}.cls-3{fill:#101111;}.cls-4{fill:#eff1f3;}</style></defs><polygon class="cls-3" points="70.9 11.98 70.9 27.53 87.36 37.09 87.36 58.79 98.59 66.23 50.79 94.32 50.63 94.32 .79 65.42 .79 65.25 13.51 58.79 13.51 37.09 30.14 27.36 30.14 11.73 50.52 0 70.31 11.14 70.9 11.98"/><path class="cls-1" d="M46.95,15.8h-.16c-.33-.04-2.75-2.02-3.49-2v-.16c.44-.34,3.35-1.6,3.16-2.08l-3.16-1.75v-.16c.67,0,3.31-1.99,3.58-2,.2,0,2.67,1.77,3.16,1.83,1.21.15,2.94-1.71,3.83-1.66.41.03,2.77,1.7,3.41,1.91l-2.83,1.83c-.13.51,2.58,1.64,3.08,1.91l.25.25c-.55.17-3.33,2.08-3.58,2.08-.53,0-3.11-2.11-3.99-2-.38.05-3.03,1.98-3.24,2h-.02Z"/><path class="cls-2" d="M14.34,62.37c.03-6.38-.05-12.75,0-19.13.08-1.54.42-3.12,0-4.66l15.64,8.74v23.95l-15.64-8.9Z"/><path class="cls-3" d="M23.63,48.05c.02-.46.51-.73.91-.51,1.05.57,2.66,1.4,2.78,1.78.06.19.09,2.54.03,3.92-.02.46-.52.74-.92.51-1.05-.59-2.72-1.47-2.77-1.61-.07-.17-.1-2.67-.03-4.1Z"/><path class="cls-3" d="M16.5,44.49c.02-.46.51-.73.91-.51,1.05.57,2.66,1.4,2.78,1.78.06.19.09,2.54.03,3.92-.02.46-.52.74-.92.51-1.05-.59-2.72-1.47-2.77-1.61-.07-.17-.1-2.67-.03-4.1Z"/><path class="cls-3" d="M16.51,57.38c-.13-.37,0-3.02,0-3.66.02-.18,0-.16,0-.16.02-.1-.03-.23,0-.34.1-.44,0-.32,0-.34.06-.17-.02-.45.34-.5.3.55,3.23,1.84,3.33,2.08.24.62-.03,2.65-.06,4.02,0,.45-.49.74-.89.54-1.08-.54-2.63-1.42-2.71-1.65h0Z"/><path class="cls-3" d="M23.82,56.38c.35.64,3.35,1.86,3.49,2.25.06.17.09,2.63.03,4-.02.45-.49.72-.89.52-1.06-.52-2.74-1.39-2.8-1.54-.1-.24-.08-5.14.16-5.24,0,0,0,0,0,0Z"/><polygon class="cls-2" points="86.28 38.42 86.36 62.46 71.14 71.19 71.06 47.32 86.28 38.42"/><path class="cls-3" d="M83.63,43.43c.31-.16.68.07.68.42,0,1.37.32,3.53.06,4.22-.07.17-1.84,1.14-2.91,1.7-.31.16-.69-.06-.68-.42,0-1.37-.32-3.45-.06-4.19.07-.19,1.84-1.18,2.92-1.73Z"/><path class="cls-3" d="M73.55,49.23c.06-.17,1.95-1.18,3.01-1.74.27-.14.59.05.59.36-.01,1.36.32,3.6.06,4.29-.09.25-2.04,1.19-2.97,1.76-.25.15-.58,0-.62-.29-.16-1.28-.16-4.18-.07-4.39Z"/><path class="cls-3" d="M84.36,57.55c-.06.15-1.93,1.1-2.99,1.68-.28.15-.61-.05-.61-.36,0-1.37-.32-3.44-.06-4.23.07-.21,2.01-1.4,3.04-1.85.28-.12.58.1.57.4-.04,1.32.31,3.71.05,4.35h0Z"/><path class="cls-3" d="M73.55,58.54c.07-.14,1.87-1.08,2.95-1.6.31-.15.66.07.66.42,0,1.37.32,3.6.06,4.26-.08.2-1.94,1.09-2.9,1.68-.29.18-.66,0-.7-.34-.15-1.38-.14-4.24-.07-4.42Z"/><path class="cls-2" d="M49.94,82.83h-.16c-1.07-1.36-6.68-3.39-7.4-4.33-.03-.03-.24-.79-.25-.84-.03-.16,0-.34,0-.5-.09-1.4.58-4.14,0-5.49-.36-.85-4.47-2.72-5.49-3.33h-.16l-.25,6.65-5.24-3.08V13.23l18.96,10.65v58.97h0,0Z"/><path class="cls-3" d="M34.13,19.79h.16c.37.67,3.34,1.81,3.49,2.25.06.18.1,2.79.03,4.2-.02.4-.45.64-.8.44-1.04-.59-2.83-1.49-2.89-1.64-.09-.24-.1-5,0-5.24h0,0Z"/><path class="cls-3" d="M42.26,25.29c.02-.4.44-.64.79-.45,1.04.56,2.82,1.47,2.9,1.68.06.18.1,2.83.03,4.23-.02.4-.44.64-.79.45-1.04-.56-2.81-1.45-2.9-1.68-.06-.18-.1-2.84-.02-4.23Z"/><path class="cls-3" d="M37.8,37.09c-.4-.38-3.58-1.89-3.66-2.08-.08-.18-.11-2.86-.04-4.32.02-.4.46-.64.81-.43,1.03.6,2.77,1.4,2.89,1.76.33.97-.24,3.87,0,5.07h0Z"/><path class="cls-3" d="M42.26,35.27c.02-.4.44-.64.79-.45,1.04.56,2.82,1.47,2.9,1.68.06.18.1,2.79.03,4.19-.02.4-.45.64-.8.44-1.04-.58-2.82-1.44-2.89-1.63-.06-.18-.1-2.84-.02-4.23Z"/><path class="cls-3" d="M34.11,40.63c.02-.4.45-.64.8-.44,1.04.59,2.83,1.49,2.89,1.64.07.18.1,2.89.03,4.27-.02.39-.43.62-.78.44-1.04-.54-2.81-1.43-2.91-1.72-.06-.18-.1-2.79-.03-4.2Z"/><path class="cls-3" d="M42.25,45.16c.02-.4.45-.64.8-.44,1.03.59,2.76,1.36,2.89,1.77.06.17.09,2.71.02,4.06-.02.39-.44.63-.79.45-1.04-.55-2.8-1.41-2.9-1.68-.06-.18-.1-2.75-.03-4.16Z"/><path class="cls-3" d="M34.13,49.57h.16c.35.72,3.33,1.77,3.49,2.25.06.18.1,2.74.03,4.16-.02.4-.45.64-.8.44-1.03-.58-2.75-1.31-2.89-1.77-.08-.24-.1-4.84,0-5.07,0,0,0,0,0,0Z"/><path class="cls-3" d="M42.26,55.06c.02-.39.44-.64.79-.45,1.04.56,2.81,1.43,2.9,1.68.06.18.1,2.81.03,4.22-.02.4-.45.64-.79.44-1.04-.58-2.82-1.46-2.9-1.66-.06-.18-.1-2.84-.02-4.23Z"/><path class="cls-3" d="M34.1,60.42c.02-.4.45-.64.8-.44,1.04.59,2.78,1.46,2.89,1.81.06.18.09,2.72.02,4.07-.02.39-.44.63-.78.45-1.04-.55-2.8-1.44-2.9-1.7-.06-.18-.1-2.79-.03-4.2Z"/><path class="cls-3" d="M42.28,64.03h.16c.4.71,3.32,1.72,3.49,2.25.06.18.1,2.81.03,4.21-.02.4-.45.64-.79.44-1.04-.58-2.82-1.46-2.89-1.66-.09-.24-.1-5,0-5.24h0,0Z"/><path class="cls-2" d="M64.24,71.86c-.03-1.05.03-2.11,0-3.16,0,0,.35-.08,0-.16-.73-.34-4.71,2.48-5.65,2.91v7.06l-7.49,4.33h-.16V23.87l18.96-10.81v58.88l-5.4,3.24c-.04-1.11-.16-2.22-.25-3.33h0,0Z"/><path class="cls-3" d="M65.55,20.5c.55-.3,1.21.09,1.23.71.05,1.5.02,3.66-.05,3.82-.05.13-1.44.88-2.48,1.4-.55.28-1.2-.11-1.22-.72-.05-1.4-.02-3.51.04-3.67.12-.36,1.46-.99,2.48-1.54Z"/><path class="cls-3" d="M58.42,24.29h.16c.1.24.09,5,0,5.24-.05.12-1.36.89-2.41,1.4-.55.27-1.18-.12-1.2-.73-.04-1.29-.28-2.98-.05-3.67.17-.52,3.09-1.53,3.49-2.25h0Z"/><path class="cls-3" d="M65.56,30.47c.55-.29,1.21.09,1.23.71.05,1.5.02,3.68-.05,3.84-.05.13-1.44.86-2.48,1.39-.55.28-1.2-.11-1.22-.72-.04-1.4-.02-3.48.04-3.66.12-.38,1.46-1.01,2.48-1.56Z"/><path class="cls-3" d="M57.41,34.98c.55-.29,1.21.09,1.23.71.05,1.5.02,3.65-.05,3.81-.05.13-1.44.86-2.49,1.38-.55.28-1.2-.11-1.22-.72-.04-1.4-.01-3.49.04-3.65.12-.36,1.46-.98,2.48-1.53Z"/><path class="cls-3" d="M65.55,40.45c.55-.29,1.21.09,1.23.72.04,1.45,0,3.51-.04,3.67-.09.29-1.44,1.01-2.48,1.54-.55.28-1.2-.1-1.22-.72-.04-1.4-.02-3.48.04-3.65.12-.38,1.45-1.01,2.48-1.56Z"/><path class="cls-3" d="M58.75,44.24v.16c.03.24-.08,4.68-.16,4.9-.05.13-1.34.86-2.39,1.4-.55.28-1.2-.1-1.22-.72-.06-1.33-.28-3.01-.05-3.67.07-.21,3.63-2.18,3.83-2.08Z"/><path class="cls-3" d="M65.49,50.37c.54-.29,1.19.07,1.23.68.09,1.45.07,3.58,0,3.75s-1.43.83-2.47,1.39c-.55.3-1.22-.09-1.23-.71-.04-1.45,0-3.52.04-3.68.09-.27,1.43-.9,2.42-1.43Z"/><path class="cls-3" d="M57.4,54.77c.55-.29,1.21.09,1.23.71.04,1.5.01,3.65-.05,3.81-.05.13-1.44.86-2.49,1.38-.55.28-1.2-.11-1.22-.72-.04-1.4-.01-3.5.04-3.65.12-.36,1.46-.98,2.48-1.53Z"/><path class="cls-3" d="M65.55,60.23c.55-.29,1.21.1,1.23.72.04,1.45,0,3.52-.04,3.67-.09.26-1.44.99-2.48,1.52-.55.28-1.2-.1-1.22-.72-.04-1.4-.01-3.46.04-3.63.12-.39,1.45-1.02,2.48-1.56Z"/><path class="cls-3" d="M57.41,64.72c.55-.29,1.2.1,1.22.72.05,1.5.02,3.67-.05,3.83-.05.13-1.44.84-2.49,1.37-.55.28-1.2-.11-1.22-.72-.04-1.4-.01-3.47.04-3.64.13-.42,1.47-1.03,2.49-1.56Z"/><polygon class="cls-3" points=".79 65.42 .79 70.73 50.71 100 98.59 71.19 98.59 66.23 50.79 94.32 1.75 65.97 .79 65.42"/><path class="cls-4" d="M13.34,60.66l.09,2.35c0,.08.05.16.12.2l36.65,21.48c.07.04.17.04.24,0l36.95-21.48c.07-.04.12-.12.12-.21v-2.62c0-.2.22-.31.38-.19l9.33,6.46c.14.1.13.31-.02.4l-46.45,27.2c-.07.04-.17.04-.24,0L2.14,66.2c-.17-.1-.16-.34.01-.42l10.84-5.32c.16-.08.34.03.35.21Z"/></svg>