<?xml version="1.0" encoding="UTF-8"?><svg id="Calque_1" xmlns="http://www.w3.org/2000/svg" viewBox="0 0 100 100"><defs><style>.cls-1{fill:#010101;}.cls-2{fill:#171716;}.cls-3{fill:#161716;}.cls-4{fill:#171717;}.cls-5{fill:#a70a0d;}.cls-6{fill:#f2f2f3;}.cls-7{fill:#171817;}.cls-8{fill:#161717;}.cls-9{fill:#eff1f3;}.cls-10{fill:#161616;}</style></defs><path class="cls-7" d="M72.47,11.95c.23.26.36.58.23.93,0-.19.05-.29.15-.25v54.14c.05.23.33.33.52.46,1.55.94,3.42,1.75,4.9,2.76.15.1,6.7,3.42,6.55,3.65l-35.26,21.26-35.15-21.17,9.17-4.65,5.79-3.32.16-.23V12.39c-.05-.49.54-.71.9-.93,3.33-1.97,7.08-3.83,10.53-5.65,3-1.6,6.07-3.34,9.11-4.85.23-.11.59-.34.83-.34.3,0,1.8.83,2.18,1.02,6.52,3.33,12.93,6.88,19.39,10.33h0Z"/><path class="cls-1" d="M72.86,12.63s-.16.2-.1.32v53.62l-.09.33V12.56l-.19-.62c.25.13.41.39.39.68h0Z"/><path class="cls-6" d="M30.78,13.12c6.82,3.69,13.57,7.37,20.25,11.04v57.1s-7.94-4.46-7.94-4.46l-.19-.26c.04-3.22.02-6.43-.06-9.63-1.6-1.19-3.57-2.22-5.33-3.02l-.05,9.4-.19.12c-1.19-.69-2.4-1.36-3.58-2.03-1.06-.41-2.23-1.1-3.19-1.82-.05-18.86-.05-37.7,0-56.54.08.04.19.04.29.09h0Z"/><path class="cls-6" d="M71.79,13.31c.06,18.99.06,38.01,0,57.05-.03.06-.09.17-.14.19-5.02,2.98-10.05,5.97-15.09,8.91-.5.3-1.02.56-1.55.82-.74.44-1.49.93-2.23,1.36-.11.24-.74.48-.78.15l.03-57.48c.07-.15.32-.31.46-.25l19.29-10.76h0Z"/><path class="cls-5" d="M43.09,76.8c-1.93-1.13-3.87-2.27-5.81-3.39l.05-9.69c.09-.13.13-.08.25-.06.19.05.74.37.97.49,1.2.63,2.71,1.45,3.84,2.16.33.21.71.37.71.84v9.65h0Z"/><path class="cls-1" d="M52.5,24.07l-.34.19-.05,57.63c.16.06.54-.16.68-.24.13.29-.87.54-.87.24V24.31c0-.07.4-.34.53-.33l.06.09h0Z"/><path class="cls-1" d="M30.78,13.12l20.46,11.1v57.14l-.09-.33V24.6c.05-.17-.04-.22-.09-.32-.12-.2-.33-.28-.52-.41-6.64-3.46-13.11-7.25-19.74-10.74h0Z"/><path class="cls-1" d="M71.79,13.31l-.09-.19.19.05-.02,57.27-.24.25c-5.46,3.09-10.77,6.46-16.23,9.55-.09.06-.32.26-.38.06,5.53-3.26,11.05-6.56,16.6-9.79l.12-.19.05-57h0Z"/><path class="cls-1" d="M30.49,13.02l.05,56.51c.08.19,2.73,1.6,3.15,1.84-.09.22-.29.03-.4-.04-.38-.2-2.77-1.54-2.84-1.71l-.05-56.66c.06-.14.09.05.09.05h0Z"/><path class="cls-3" d="M46.68,53.87c-.03.07-.16.14-.24.15-.23.02-3.09-1.57-3.5-1.83-.45-.29-.66-.33-.71-.93-.11-1.26-.12-3.9,0-5.14.03-.24.05-.58.39-.49,1.05.7,2.35,1.18,3.38,1.86.23.15.69.46.69.77v5.62h0Z"/><path class="cls-2" d="M42.38,34.75c.15-.06.28,0,.42.05.59.19,2.46,1.3,3.07,1.67.48.3.75.42.81,1.03.16,1.68-.11,3.61-.02,5.32-.16.48-.92-.06-1.22-.21-.65-.33-2.47-1.22-2.93-1.62-.25-.21-.27-.46-.3-.77-.11-1.18-.14-3.99,0-5.14.02-.14,0-.27.17-.33Z"/><path class="cls-2" d="M42.44,62.82c-.13-.27-.2-.59-.22-.89-.1-1.3-.09-3.44,0-4.75.06-.81.32-.56.88-.29.65.32,2.82,1.46,3.29,1.85.25.21.27.35.3.67.1,1.13.14,4.06,0,5.14-.09.71-.58.3-.97.09-1.11-.57-2.16-1.25-3.27-1.82h0Z"/><path class="cls-4" d="M42.22,23.93c.07-.24.4-.12.56-.07.5.17,2.97,1.54,3.45,1.88.37.26.42.46.45.9.11,1.18.11,3.68,0,4.86-.03.32-.09.62-.49.49-1.02-.71-2.29-1.17-3.32-1.82-.17-.11-.65-.41-.65-.61,0,0,0-5.62,0-5.62Z"/><path class="cls-10" d="M34.11,58.26c-.1-.1-.2-.45-.22-.6-.13-1.15-.12-3.98,0-5.14.02-.18.03-.47.26-.51.19-.04,3.01,1.58,3.4,1.81.53.32.65.37.71,1.03.11,1.21.12,3.75,0,4.95-.03.32-.08.6-.49.48l-3.66-2.02h0Z"/><path class="cls-3" d="M34.14,41.14c.22-.04,3.88,2.07,3.99,2.28.09.18.1.36.12.56.1,1.11.14,3.97,0,5.05-.09.71-.58.3-.97.09-.83-.42-1.89-1-2.68-1.49-.46-.29-.66-.34-.71-.93-.1-1.12-.15-4.08,0-5.14.02-.16.07-.38.26-.42h0Z"/><path class="cls-8" d="M33.88,30.42c.03-.07.16-.14.24-.15.2-.02,3,1.52,3.37,1.77.46.3.7.4.75.99.11,1.22.12,3.74,0,4.96-.03.32-.08.6-.49.48l-3.32-1.82c-.19-.1-.55-.52-.55-.71v-5.52h0Z"/><path class="cls-8" d="M38.02,21.38c.11.14.21,1.11.22,1.37.06,1.08.13,3.27,0,4.27-.04.28-.13.44-.44.44-1.05-.61-2.53-1.16-3.48-1.86-.34-.25-.42-.38-.45-.81-.1-1.11-.14-3.98,0-5.05.04-.29.17-.5.49-.39l3.66,2.02Z"/><path class="cls-4" d="M64.03,55.33s.2-.38.27-.44l3.22-1.89c.48-.17.56.19.59.59.11,1.22.1,3.54,0,4.75-.02.19-.03.4-.12.56-.11.19-3.5,2.2-3.71,2.2-.09,0-.24-.09-.24-.15v-5.62h0Z"/><path class="cls-10" d="M68,63.63c.07.04.1.41.11.52.09,1.3.1,3.45,0,4.75-.03.32-.02.66-.3.86-.95.46-1.82,1.13-2.74,1.62-.26.14-.86.57-1.02.11.09-1.67-.17-3.57-.02-5.22.04-.39.09-.51.4-.76.35-.29,2.62-1.66,3.03-1.82.14-.06.43-.14.54-.06h0Z"/><path class="cls-4" d="M67.5,31.36c.29-.07.56.02.6.32l-.04,5.39c-.08.28-.38.41-.6.56-.56.38-2.31,1.48-2.87,1.69-.31.12-.56.15-.56-.26l.05-5.49c.08-.2.23-.33.41-.46.88-.63,2.1-1.11,3.01-1.75h0Z"/><path class="cls-4" d="M60.06,74.14c-.02.1-.17.25-.26.32-.36.29-2.78,1.72-3.18,1.86-.44.16-.5-.03-.54-.44-.12-1.27-.1-3.76,0-5.05.02-.19.04-.38.12-.56,1.14-.78,2.36-1.55,3.61-2.11.08,0,.24.1.24.15v5.81h0Z"/><path class="cls-4" d="M64.03,22.76c.03-.12.28-.39.39-.48.33-.26,2.65-1.62,3.01-1.75.57-.19.64-.06.68.47.09,1.29.11,3.58,0,4.86-.06.58-.22.6-.65.9-.93.63-2.06,1.12-3.01,1.75-.11.07-.41-.02-.41-.13v-5.62h0Z"/><path class="cls-4" d="M67.99,42.21c.07.05.1.4.11.51.09,1.3.09,3.35,0,4.66-.02.21,0,.46-.12.66-.1.18-2.98,1.88-3.37,2.06-.16.07-.3.18-.48.14-.06-.18-.09-.34-.1-.53-.09-1.31-.12-3.66,0-4.95.06-.58.25-.66.69-.96.38-.26,2.56-1.55,2.86-1.6.1-.02.33-.04.42,0Z"/><path class="cls-4" d="M59.73,57.34c.09,0,.18.05.23.12.19.26.07,3.63.08,4.28,0,.59.33,1.28-.23,1.79-.39.35-2.3,1.41-2.86,1.7-.29.15-.59.41-.83.05v-5.63c.07-.19.19-.31.34-.43.85-.71,2.32-1.24,3.26-1.88h0Z"/><path class="cls-3" d="M60.06,46.56v5.77c0,.1-.22.29-.32.36-.87.7-2.25,1.2-3.18,1.88-.41.11-.45-.16-.49-.48-.12-1.23-.11-3.83,0-5.05.05-.54.15-.52.56-.8.34-.23,2.91-1.75,3.08-1.76.11,0,.22.09.34.08Z"/><path class="cls-4" d="M60.06,41.47c-.09.34-3.01,1.82-3.49,2.14-.4.11-.45-.16-.49-.48-.12-1.21-.1-3.63,0-4.86.02-.19.04-.38.12-.56,1.14-.79,2.35-1.57,3.61-2.11.08,0,.24.1.24.15v5.72h0Z"/><path class="cls-4" d="M56.09,27.03c.03-.13.2-.28.32-.36.42-.33,2.64-1.65,3.1-1.84.15-.06.56-.14.56.07v5.62c0,.1-.26.34-.35.42-.48.4-2.07,1.28-2.68,1.58-.12.06-.94.51-.94.13v-5.62h0Z"/><path class="cls-9" d="M27.79,68.17l-11.14,5.67,32.97,19.86,32.8-20.11-9.56-5.43v2.69c0,.31-.16.59-.43.74l-19.66,11.51c-.29.17-.65.17-.95,0l-21.78-12.55c-.28-.16-.46-.45-.48-.77l-.16-2.36-1.62.73Z"/><polygon class="cls-7" points="84.82 77.22 84.82 73.62 49.56 94.88 14.41 73.72 14.41 77.41 49.19 99.39 84.82 77.22"/></svg>