<?xml version="1.0" encoding="UTF-8"?><svg id="Calque_1" xmlns="http://www.w3.org/2000/svg" viewBox="0 0 100 100"><defs><style>.cls-1{fill:#740202;}.cls-2{fill:#9b0b0b;}.cls-3{fill:#f4f5f7;}.cls-4{fill:#0f1010;}.cls-5{fill:#090908;}.cls-6{fill:#282828;}.cls-7{fill:#0f100f;}.cls-8{fill:#9c0b0b;}.cls-9{fill:#7d0101;}.cls-10{fill:#f5f5f7;}.cls-11{fill:#ebedef;}.cls-12{fill:#101010;}</style></defs><path class="cls-7" d="M91.12,47.96c-.12.21-1.13.46-1.16.85l.02,11.49c.04.16.19.21.3.29,1.47.99,6.25,2.72,7.84,3.68.18.11.71.36.57.61-8.45,5.31-24.28,16.19-32.74,21.47-.59.37-2.99,1.99-3.46,2.02-.14,0-.28-.02-.41-.08-19.25-9.84-41.77-20.66-61.13-30.26-.09-.06-.13-.14-.15-.25-.04-.34,13.48-7.94,14.06-8.48v-12.17c-.09-.49-.94-.02-1.28-.48-.25-.35.03-.52.25-.73l8.56-6.07c4.21-1.84,8.39-4.1,12.65-5.78.23-.09.97-.44,1.13-.45.21,0,.29.15.41.18.29.06.98-.56,1.24-.77,1.53-1.19,2.94-2.54,4.47-3.72l23.99-12.1c.21-.1.45-.12.65-.03l13.58,17.34c.32.74-1.27.65-1.38,1.29l.05,7.16,11.77,14.47c.04.12.22.45.17.54h0Z"/><path class="cls-3" d="M39.35,63.49c-1.85-.9-3.71-1.79-5.55-2.69l-.1-.19v-20.97c0-3.03-.04-6.13,0-9.16,0-.42-.1-1.81.09-2.06,2.94-2.2,5.62-4.74,8.54-6.96.25-.19.46-.45.68-.1l10.65,15.29.02,10.31c0,.12-.07.17-.14.25-.45.51-1.61,1.04-2.1,1.61v20.43c-1.71-.62-3.33-1.55-4.97-2.34l-.1-.12-.04-16.93c-.03-.11-.13-.2-.22-.24-2.11-1.02-4.37-2.1-6.51-2.87l-.04,16.53c0,.06,0,.1-.1.12.13.12.07.14-.1.1h0Z"/><path class="cls-3" d="M52.54,69.81l.03-19.98.3-.38c2.54-1.71,4.84-3.79,7.37-5.5.14-.1.32-.29.51-.24l9.89,14.11v17.32c-.11.37-2.53,1.54-2.91,1.97h-.29l-14.9-7.29h0Z"/><path class="cls-3" d="M32.62,60.16l-16.62-8v-16.09c2.07-1.65,4.39-3,6.49-4.63l.23-.04,9.72,12.71c.04.1.2.52.2.59v15.46h-.02Z"/><path class="cls-3" d="M88.79,49.25l-.02,14.56-.18.21c-1.82,1.12-3.65,2.22-5.46,3.37-.19,0-.27-.06-.1-.12l-.1-11.68-.18.04c-1.79.9-3.84,1.97-5.46,3.28l-.03,12.07-.1.12c-.2.12-.45.37-.69.53-1.54.96-3.11,1.88-4.62,2.88-.02,0-.14-.37-.14-.39-.16-.04-.14-.3,0-.39-.03-4.97,0-9.95.1-14.92.02-.14.21-.26.55-.34,5.43-3.12,10.87-6.21,16.31-9.27l.11.05h0Z"/><path class="cls-10" d="M77.97,26.23v5.9c-.66.46-1.38.85-2.08,1.23-5.14,2.87-10.35,5.63-15.51,8.48-1.52,1.2-3.07,2.54-4.66,3.63-.26.18-.55.45-.87.45v-7.61l.46.17c6.17-3.25,12.26-6.71,18.39-10.04,1.4-.76,2.82-1.53,4.26-2.22h0Z"/><path class="cls-2" d="M46.28,66.8c-2.3-1.11-4.62-2.2-6.93-3.31.04-.02.07-.09.1-.1.04-.19.07-.27.1-.1l.03-16.54c.2-.02.38.03.57.14l5.96,2.73.22.21.04,16.91-.1.07v-.02Z"/><path class="cls-8" d="M83.14,67.39c-1.91,1.21-3.84,2.4-5.75,3.61l-.1-.02.02-12.04c.18-.48,4.58-2.91,5.38-3.34l.26-.02.2,11.8h0Z"/><path class="cls-9" d="M46.47,66.9c-.06-.04-.13-.06-.2-.1l-.04-16.97-.17-.12-6.41-2.9v16.44c.03.21-.12.12-.2.14l.04-16.68c.16-.24.77.09,1,.18,1.89.79,3.74,1.87,5.66,2.63l.28.21.04,17.16h0Z"/><path class="cls-5" d="M71.73,74.11l-.2.34.05-15.65c.17-.35.54-.24.8-.37.92-.44,2.01-1.13,2.92-1.66,4.35-2.49,8.63-5.11,13-7.58l.59-.14-.1.2-16.97,9.55c-.09,4.95-.13,9.92-.1,14.92,0,.12-.02.28,0,.39h0Z"/><path class="cls-1" d="M82.95,55.58v11.71c-.17.03-.09-.22-.1-.34-.15-3.74.2-7.53-.1-11.27-.63.5-5.22,2.9-5.35,3.29l-.02,12.03c-.06.04-.13.06-.2.1l.02-12.22c.06-.17.21-.24.34-.34,1.16-.87,3.61-2.26,4.94-2.96.21-.11.36-.27.46.02h0Z"/><path class="cls-5" d="M70.95,75v-16.97l.2.24c-.3,5.31.38,11.04,0,16.29,0,.17.02.37-.2.44Z"/><rect class="cls-6" x="33.3" y="28.76" width=".1" height="31.79"/><path class="cls-7" d="M40.13,30.03l5.61,2.54v6.54l-.28.18c-.59-.36-5.33-2.18-5.33-2.47v-6.78h0Z"/><path class="cls-4" d="M64.03,63.53c-.05.16-.34.19-.49.1l-4.91-2.21c-.33-.2-.33-.66-.36-1.01-.12-1.56-.13-4.21,0-5.76.04-.39.08-.88.59-.69,1.71.85,3.51,1.51,5.17,2.45v7.12h0Z"/><path class="cls-12" d="M20.63,39.5c.08-.05.28,0,.38.04,1.28.38,2.81,1.5,4.16,1.88.35.2.39.37.42.75.12,1.31.12,3.96,0,5.28-.08.94-.52.62-1.14.36-.99-.41-2.69-1.09-3.56-1.6-.13-.07-.24-.14-.31-.27,0-.76-.21-6.25.05-6.43h0Z"/><path class="cls-7" d="M71.73,73.73c-.26-4.81.2-9.85,0-14.69l.11-.23-.1,14.92h0Z"/><polygon class="cls-7" points=".81 57.77 .81 61.86 62.36 93.32 98.72 68.57 98.7 64.87 62.5 88.36 2.13 58.43 .81 57.77"/><path class="cls-11" d="M13.6,51.52l-10.76,6.48c-.31.18-.29.64.03.8l59.4,29.45c.14.07.31.06.45-.03l34.33-22.28c.3-.19.27-.64-.05-.79l-6.41-3c-.3-.14-.64.07-.65.4l-.04,1.32-.12.41-21.56,14.07c-.13.09-.3.1-.45.03L15.19,53c-.15-.07-.25-.23-.26-.4l-.05-1.83-1.28.76Z"/></svg>