<?xml version="1.0" encoding="UTF-8"?>
<svg id="Calque_1" xmlns="http://www.w3.org/2000/svg" version="1.1" viewBox="0 0 100 100">
  <!-- Generator: Adobe Illustrator 29.8.3, SVG Export Plug-In . SVG Version: 2.1.1 Build 3)  -->
  <defs>
    <style>
      .st0 {
        fill: #a81205;
      }

      .st1 {
        fill: #080808;
      }

      .st2 {
        fill: #272727;
      }

      .st3 {
        fill: #c4140a;
      }

      .st4 {
        fill: #020202;
      }

      .st5 {
        fill: #a71106;
      }

      .st6 {
        fill: #020201;
      }

      .st7 {
        fill: #e1e1e1;
      }

      .st8 {
        fill: #050505;
      }

      .st9 {
        fill: #060606;
      }

      .st10 {
        fill: #090808;
      }

      .st11 {
        fill: #fbfbfb;
      }

      .st12 {
        fill: #171717;
      }

      .st13 {
        fill: #f9f9f9;
      }

      .st14 {
        fill: #ab1307;
      }

      .st15 {
        fill: #fafbfb;
      }

      .st16 {
        fill: #040303;
      }

      .st17 {
        fill: #181817;
      }

      .st18 {
        fill: #fcfcfb;
      }

      .st19 {
        fill: #f1f1f1;
      }

      .st20 {
        fill: #050504;
      }

      .st21 {
        fill: #030303;
      }

      .st22 {
        fill: #1a1b1a;
      }

      .st23 {
        fill: #ad1408;
      }

      .st24 {
        fill: #1a1a1a;
      }

      .st25 {
        fill: #171817;
      }

      .st26 {
        fill: #b71609;
      }

      .st27 {
        fill: #191918;
      }

      .st28 {
        fill: #dcdcdc;
      }

      .st29 {
        fill: #f6f6f7;
      }

      .st30 {
        fill: #040404;
      }

      .st31 {
        fill: #fafafa;
      }

      .st32 {
        fill: #070707;
      }

      .st33 {
        fill: #f9fafa;
      }

      .st34 {
        fill: #f7f7f7;
      }

      .st35 {
        fill: #fdfdfd;
      }

      .st36 {
        fill: #040403;
      }
    </style>
  </defs>
  <path class="st22" d="M99.51,58.99c.13,1.05-.04,2.1-.1,3.13-.03.44.13,1.53-.11,1.8l-49.34,28.53L.5,63.78c.15-1.41-.18-3.16,0-4.52.02-.17.02-.31.18-.42l32.28-17.56c.07.1-.29,1.58-.34,1.86-.06.34.11.75-.19,1.01L3.54,59.45l46.42,27.68,46.23-27.68c-.27-.3-.75-.54-1.11-.73-3.26-1.79-13.55-10.37-16.79-12.2-.02-.96.27-1.61-.04-2.51l21.26,15Z"/>
  <path class="st27" d="M-661.82-776.85l81.01,43.49c1.03.77.91,1.85,1.04,2.96.71,5.88.77,24.34,0,30.11-.15,1.1-.11,2.17-.97,3.03-129.1,73.18-258.43,146.05-388.58,217.34l-388.52-218.41c-1.03-.77-.91-1.85-1.04-2.96-.45-3.77-.35-34.03.56-35.55l4.83-3.17c55.76-29.75,109.1-64.59,164.99-94.01,2.05-1.08,4.35-2.63,6.67-2.82.68.77-1.83,18.21-2.98,19.51l-151.01,82.98,365.49,213.13,363.5-207.64c-5.13-6.27-55-28.32-55-31.49v-16.5Z"/>
  <path class="st12" d="M-1171.82-895.85l62.01,7.51c-.65,2.33-2.18,7.74-4.7,8.34l-24.18-2.71-5.14,22.86h4.01c-1.43,8.95-1.44,17.56-8.75,23.76l-9.81,43.19c-2.46,4.31-18.41,1.24-23.44,1.03,2.55-30.93,12.16-60.87,17.07-91.5-.22-6.67-12.67-1.54-15.56-8.51l-.57-258.53c-.83-12.29,14.21-5.22,17.91-7.59.65-.41,3.86-12.23,4.95-14.55,9.22-19.74,33.34-27.76,42.21-3.31,1.47,1.07,6.05-4.86,7.51-5.97,14.73-11.2,29.12-3.46,33.49,12.97,1.5,1.09,7.11-6.94,8.98-8.51,15.91-13.33,28.81-1.49,34.52,14.51,6.05-10.88,18.4-20.52,30.83-12.83,11.13,6.88,12.92,23.9,13.77,35.73,1.3,1.63,27.39,2.97,32.14,4.36,2.13.62,3.55,1.5,4.31,3.69,7.42,72.27,13.61,144.92,26.63,216.37,31.24,19.62,65.31,34.94,96.8,54.2.4,2.21-.88,1.49-2.38,1.39-5.7-.39-13.73-3.93-19.13-3.9-3.5.02-7.36,3.33-9.73,2.83-18.16-9.96-35.83-21.25-54.08-31-4.34-2.32-12-8.29-11.7-.38.8,21.58,10.75,48.81,12.91,71.17.38,3.97,1.7,9.36-2.61,10.12-2.06.36-15.53-.34-17.75-.76-1.38-.26-2.32-.73-2.98-2.02l-15.53-79.23c-6.05-3.96-9.13.47-10-8.24-3.38-33.63.41-77.1.03-112.03-.29-26.77-1.35-54.14-2.08-80.92-.29-10.47,1.07-21.31-.97-31.53-1.74-.24-.94,2.27-.99,3.48-2.8,75.05.79,152.43-.04,227.97-.07,6.7,1.28,24.29-.72,29.28-1.73,4.33-8.13,4.89-8.32,5.89l14.12,86.71c-.26,1.11-3.47,1.71-4.57,1.71-2.75.01-16.16-1.3-17.78-2.24-.88-.51-1.59-1.04-1.97-2.03l-16.71-88.05c-.9-1.79-5.37-1.22-5.73-3.16-.06-.3.95-5.29,1.17-5.61,2.04-2.98,25.61,3.03,30.54,2.04v-257.5c0-.7-3.42-2.5-4.56-2.44l-49.44-4.07c-.47,5.59,1.18,15.12,6.04,18.47,3.12,2.15,11.02,3.19,5.55,9.62-3.49,4.09-8.15,1-11.49-1.67-7.86-6.29-9.4-17.63-11.05-26.95l-32.05-3.46c-.15,4.67,1.67,14,4.95,17.28,2.13,2.12,13.46,3.74,7.52,10.69-6.49,7.6-18.41-8.29-20.41-14.52-1.12-3.49-1.75-13.05-3.72-14.28-1.61-1.01-29.27-4.25-30.34-3.16-.38,6.56,1.38,14.49,7.04,18.46,1.7,1.19,4.1,1.25,5.44,2.56,4.53,4.41-2.37,11.44-11.42,5.41-9.7-6.47-9.61-18.08-13.03-27.97l-28.04-2.46c-.02,5.27,2.06,14.84,6.48,18.03,2.44,1.76,11.45,4.03,6.26,9.71-7.23,7.92-18.63-8.71-20.68-15.29-.87-2.81-1.83-12.53-2.49-13.51-1.21-1.78-6.39-.68-8.56-.94v252Z"/>
  <path class="st25" d="M54.1,66.34c.18.33.68.82.76,1.08.15.55-1.46,1.83-1.92,2.15-4.68,3.25-11.09,2.02-16.4,1.34-1.64-.2-4.27,0-3.84-2.57.21-1.2,1.94-.95,2.86-.92,3.74.13,7.57.76,11.32.42.93-.08.93-.76,0-.84-4.06-.37-8.32-.08-12.3-.41-2.31-.2-2.1-2.73-.43-3.37.35-.13,1.96-.35,2.02-.43.04-.05.04-.52.02-.54-.13-.12-3.06-.23-3.56-.28-4.76-.49-10.61-.84-15.2-1.71-.95-.18-3.69-1.01-3.75-2.13-.06-1.22,1.64-.78,2.31-.91.34-.07.47-.41.77-.5,1.81-.57,9.63.96,12.09,1.2,3.01.29,6.21.56,9.22.28,1.29-.13,2.8-.35,3.98-.84,1.49,2.7,4.14,5.06,6.92,2.23.12-.13.13-.38.26-.51.4-.42.96-.76,1.3-1.28.99.05,1.97.56,2.93.66.64.06,1.21.03,1.72-.07-.66.67-1.6,2.7-1.73,3.03-.63,1.71-.19,3.38.65,4.92Z"/>
  <path class="st25" d="M59.17,68.82c-2.64-.27-5.17-2.84-5.22-5.54-.01-.62-.19-1.36,1.64-4.38.58-.9,2.86-2,2.86-2,.21.11.84-.49,4,.81,6.2,2.54,3.7,11.81-3.28,11.11Z"/>
  <path class="st26" d="M-448.36-409.61c-5.77-1.73-11.2-3.54-12.02-10.48-2-16.88,1.3-41.48,2.06-58.98.54-12.46-.73-31.28,1.2-42.8.51-3.06,2.54-7.08,4.82-9.18,2.57-2.36,28.9-16.58,31.19-16.38,1.92.17,5.23,1.88,7.72,2.35,3.34.63,24.12,3.6,24.91,4.58,3.35,4.16-3.65,3.84-5.3,4.96-1.99,1.35-2.36,3.74-.6,5.45s22.55,5.77,25.27,5.31c5.65-.96,3.93-9.75,5.27-9.86l50.76,9.24c5.08,2.55-5.7,5.87-.26,10.25,2.77,2.23,23.49,6.21,27.03,5.08,11.19-3.58-6.19-8.46-3.05-11.54,2.12-.07,4.24-.07,6.37.12,8.06.73,35.99,4.68,41.56,8.44,10.78,7.29,6.11,21.53,7.07,32.43-2.35-.15-4.64,1.21-6.86,4.07l-11.58,9.15-2.56-.22c-.19-6.43,1.31-25.76-1.54-29.96-.75-1.1-1.6-1.76-2.89-2.11-37.72-7.47-75.51-14.9-113.38-21.62-21.62-3.84-43.44-7.91-65.18-10.3l174.3,37.18c1.33.32,1.48,1.12,1.7,2.3,1.17,6.19.03,20.33-.01,27.51-.59,1.35-.95,2.77-1.26,4.18-1.41,6.33-.34,11.14,1.26-.18,2.29,9.56.38,20.18,1,30-2.07-.03-3.13-1.82-3.19-5.37-8.61,1.26-10.86-1.41-13.77-8.42l-3.71-.43c-8.86,2.78-16.17,1.28-21.93-4.5-7.1-.4-9.9,1.81-8.4,6.62l-2.01,2.1c-1.91.96-2.73.14-2.98-1.87l.09-10.6c-8.96-1.49-17.78-3.35-26.44-5.58.2-9.47-.68-18.49-2.64-27.06-7.62-1.71-15.27-3.13-23.03-3.97l1.18,20.61c0,5.13-2.49,7.03-7.37,5.64l-20.73-4.11c-.28,1-1.12,1.57-2.08,1.95-1.68,6.33-2.16,12.97-1.46,19.92-2.06,3.52-5.5,5.55-10.31,6.08-11.82,1.59-23.61,3.33-35.36,5.21-13.23.95-5.81,15.21-1.41,22.34-.11,1.02-.62,1.83-1.46,2.46Z"/>
  <path class="st17" d="M38.28,36.68c.82,2.85,3.75,5.11,6.78,4.88,1.16-.09,2.17-.67,3.22-1.08.95,1.3,1.37,3.33,1.47,4.92.18,2.94,0,6.16-.14,9.09-.02.38.1,3.01-.35,3l-3.26-5.83c.08-1.92.25-4.06.12-5.98-.05-.74-.34-2.91-.98-1.24l-.15,5.37c-.92-.61-3.06-5.13-3.84-5.31-.2-.04-.34.17-.35.35-.03.3,1.51,2.88,1.8,3.38,1.83,3.18,3.84,6.26,5.62,9.47.78,2.32-2.49,2.79-3.85,1.34-1.6-1.7-3.74-5.25-5.13-7.31-.68-1.01-1.52-2.77-2.28-3.59-.51-.55-.71-.4-.61.33.16,1.09,1.85,3.46,2.53,4.46.28.41,2.82,3.65,2.63,3.86-5.85,1.11-11.76.2-17.61-.42-.06-.5.21-.99.66-1.23.64-.33,2.51-.42,3.32-.46.62-.03,3.37-.1,3.76.03.33.11.36.78.59,1.09.34.46.58.37.57-.18,0-1.25-.39-2.81-.38-4.08,0-2.23.86-4.31,1.23-6.47.47-2.75-.06-4.9,2.21-7.02.65-.6,1.56-1.21,2.44-1.39Z"/>
  <path class="st23" d="M-372.36-437.61l1.12.65c.25,7.78.54,15.57.88,23.35,2.82,1.36,25.7,6.14,26.97,5.59,1.06-.46-.03-19.81-.75-22.99.27-1.82,1.28-2.52,2.84-3.23s21.6,3.84,24.64,4.76l1.3,1.87c.39-3.3.72-6.63,1-10-2.55-1.13-2.55-1.86,0-3,.08-3.76-.31-7.84,0-11.52.09-1.1-.46-1.73.99-1.47.77,5.83,6.58,1.43,10.03,2.39,2.67.74,4.35,4.62,7.69,5.39,5.73,1.33,12.21-2.2,17.6-.59,3.24.97,2.86,5.12,4.22,6.77,2.47,2.99,8.51,1.92,11.46.03-1,3.08.86,6.95,1.01,9,.38,5.12-.28,10.4-.04,15.54.39,8.48,2.66,22.67.83,30.75-2.25,9.98-15.67,8.59-23.02,7.44-48.36-7.56-100.65-19.45-148.77-29.73l-3.58-1.87c.95-7.06-4.43-6.09-7.51-1.32l-2.9.2c-.57-.15-1.45.16-2,0-.39-4.02-5.09-8.6-5.79-11.71-.38-1.68-.57-11.25-.04-12.12.35-.57,7.36-2.84,8.62-2.97,6.98-.71,9.36-1.37,16.17-2.73,5.43-1.08,26.1-1.33,27.84-7.16s-2.39-14.39,3.19-19.31l1.85,3.85.52,17.96c7.39,2,14.95,3.05,22.54,4.08l1.09,2.11Z"/>
  <path class="st0" d="M-1056.82-1060.85l28.01,2c-1.06,9.62,1.93,20.04-.56,29.06l-27.44-2.05v27l-28.5-2c-.82.03-2.5-.95-2.5-1.5v-26.5l-28-2v-29l28,2v-27l28.5,2c.82-.03,2.5.94,2.5,1.5v26.5Z"/>
  <path class="st17" d="M43.56,29.59c7.55-1.03,8.54,10.19,1.77,10.99-7.94.94-8.66-10.04-1.77-10.99Z"/>
  <path class="st12" d="M32.69,62.95c-.57,1.18-.87,2.19-.42,3.49-4.37.35-8.32-1.23-11.92-3.52l-1.91-1.51,14.25,1.54Z"/>
  <path class="st3" d="M-308.62-531.36c-4.53-4.8-47.4-8.74-56.3-12.08-7.35-.65-2.62,15.68-7.85,15.79-3.11.06-8.02-2.98-11.48-3.06-1.54-13.33.83-27.02,16.24-28.84l66.9,13.2c3.29,1.4,7.76,5.95,8.55,9.45s.68,18.98-1.28,21.3c-1.64,1.94-11.03.03-12.54-1.47-2.55-2.53.66-11.22-2.23-14.28Z"/>
  <path class="st14" d="M-234.36-480.61c-1.74,24.86,3.75,52.99,1,77.5-.75,6.72-3.04,8.38-8.09,11.91-1.44,1.01-13.27,8.23-13.91,7.58,3.01-13.32,2.4-28.72,2.04-42.54-.35-13.71-1.64-27.64-2.05-41.45,5.99-6.61,14.85-9.85,19.5-18l1.5,5Z"/>
  <path class="st5" d="M-1143.1-1011.62c3.06-.63,8.25-.53,11.3.24,3.81.97,9.8,7.21,11.48,7.2,1.28,0,5.88-3.85,9.23-4.42,21.51-3.66,31.06,22.14,21.08,39.08-3.33,5.66-24.88,24.7-30.55,25.56-1.95.29-6.42-3.79-8.28-5.36-10.5-8.9-27.77-26.63-28.06-41.02-.16-7.7,5.73-19.61,13.81-21.27Z"/>
  <path class="st21" d="M-721.82-986.85h-6v-18.5c0-3.26-9-.72-9,2v16.5c-1.11-.19-4.73.29-5,0-.96-1-.4-17.58-1.43-19.06-2.13-3.04-8.56,1.01-8.56,2.56v16.5h-6v-23.5c0-3.55,6.16.1,6.52.13,1.09.08,4.21-2.03,7.98-1.67,3,.28,5.51,2.77,6,2.77,1.12,0,4.08-3.84,9.97-2.7,1.83.35,5.53,4.11,5.53,5.48v19.5Z"/>
  <path class="st36" d="M-716.82-1065.85c2.51-1.19,5.37,1.53,6.52,1.61,1.56.1,4.51-2.71,7.74-2.4,2.97.28,5.87,3.61,6.23,3.62.4,0,4.48-3.35,7.25-3.61,10.28-.97,9.79,12.61,9.25,19.27-.42,5.19-.29,7.63-5.99,6.52v-17.5c0-5.21-10-2.78-10,1v16.5h-5v-15.5c0-7.7-10-5.06-10-2v17.5c-1.43.26-6,.03-6-1.5v-23.5Z"/>
  <path class="st4" d="M-882.84-1073.82l-1,4.98c-3.4-1.55-14.53-4-15.06,1.52-.72,7.64,17.04,4.55,17.75,16.11.8,13.1-21.85,12.13-24.61,8.27-.38-.54.75-4.76.96-4.91.81-.58,17.62,6.16,17.63-2.5,0-7.01-17.75-3.95-17.75-16s14.3-10.51,22.08-7.47Z"/>
  <path class="st16" d="M-599.82-1073.84c.37.51-1.38,3.74-1.01,5-3.98-1.08-16.51-4.73-15.94,2.52.51,6.53,18.04,3.79,18.04,15.97,0,9.75-11.14,10.36-18.51,9.42-5.48-.7-7.67-1.59-5.57-6.91.76-.69,16.86,6.28,18-1.56.9-6.19-8.52-6.32-12.37-8.59-9.12-5.37-6.39-16.76,3.83-17.88,2.12-.23,12.7.9,13.53,2.03Z"/>
  <path class="st21" d="M-571.83-1068.84c-.73.74-9.89-4.5-14.53-.05-5.94,5.71,8.65,8.15,11.89,10.19,8.01,5.02,5.34,16.35-3.92,17.79-5.35.83-17.71,1.27-15.43-6.93.72-.76,18.08,6.81,18.1-2.51,0-7.15-17-4.19-18.09-15.09-1.07-10.72,17.14-13.48,22.12-7.95.72.79.03,4.4-.14,4.56Z"/>
  <path class="st20" d="M-695.82-986.85c-4.28,1.69-5.15-2.06-5.48-2.01-3.48.6-8.65,6.14-13.57.56-6.89-7.82,5.46-15.37,13.05-13.56,2.13-9-11.15-3.2-11.98-4.01-.15-.14-1.16-3.81-1.04-3.97,1.62-2.14,13.8-2.88,16.5,0,.41.43,2.51,5.19,2.51,5.49v17.5Z"/>
  <path class="st1" d="M-795.82-1065.85v17.5c0,4.46,10,2.74,10-1v-16.5c1.43-.26,6-.03,6,1.5v22c0,1.45-3.06,2.01-4.95.71-2.85-1.96-2.08.17-5.59.73-3.81.61-11.46-.79-11.46-5.45v-19.5h6Z"/>
  <path class="st8" d="M-651.12-1011.63c20.19-4.62,19.68,28,2.06,25.59-13.5-1.85-12-23.31-2.06-25.59Z"/>
  <path class="st8" d="M-630.82-1010.35c.43-1.42,3-1.9,4.42-1.42,1.54.52,1.32,3.2,2.08,2.92,3.32-1.23,3.65-4.19,9.98-2.97,1.83.35,5.53,4.11,5.53,5.48v19.5c-2.27.27-6,.47-6-2.5v-16c0-3.15-10-1.08-10,2v16.5c-2.27.27-6,.47-6-2.5,0-4.39-.89-18.05,0-21Z"/>
  <path class="st21" d="M-819.06-1066.62c15.68-.87,17.59,28.73-2.2,25.7-12.46-1.91-12.11-24.91,2.2-25.7Z"/>
  <path class="st21" d="M-855.82-1051.85h-15c-.57,10.82,9.69,4.47,12.42,5.09,1.67.38,2.11,4.17,1.53,4.86-.89,1.06-11.2,1.3-13.24.84-8.67-1.97-9.27-19.16-2.06-23.63,9.66-5.98,17.9,2.84,16.35,12.85Z"/>
  <path class="st21" d="M-798.1-1011.61c18.39-3.73,18.83,23.36,5.52,25.55-16.36,2.69-17.82-23.05-5.52-25.55Z"/>
  <path class="st21" d="M-540.32-1075.85c1.36.42,2.12,3.84,1.4,4.91-.9,1.35-8.88,1.12-10.91,1.08l-.99,29.01h-5.01v-29c0-.79-14.27,3.06-11-6,6.61,1.27,20.95-1.71,26.5,0Z"/>
  <path class="st30" d="M-668.83-1051.84c-2.14,2.21,2.59,7.04,6.38,6.93,1.43-.04,10.83-3.9,7.16,2.1-2.82,4.62-17.97,3.07-19.47-6.6-2.83-18.25,16.45-22.38,20.26-10.28,4.34,13.79-11.89,5.32-14.34,7.85Z"/>
  <path class="st30" d="M-814.82-986.85c-10.02,2.32-4.72-13.32-5.93-19.45-.29-1.46-3.7,1.17-3.13-3.1.28-2.1,2.03-1.47,2.85-3.13,1.14-2.31.7-6.82,3.26-8.78,3.32-2.54,13.06-2.74,10.96,3.45-3.95-.24-7.81-.5-8.05,4.48-.14,3,4.08,1.01,6.04,1.52v5.01s-6.01,0-6.01,0v20Z"/>
  <path class="st30" d="M-722.82-1064.84c-.34,8.7-8.92-1.04-12.98,5.49,3.02,4.25,8.8,3.08,12,6.98,3.88,4.73,1.25,10.52-4.57,11.46-4.39.71-17.06.61-10.98-5.79,2.61,1.44,10.79,3.39,11.48-.76.8-4.8-14.2-2.72-12.92-12.79.99-7.81,12.62-6.9,17.98-4.58Z"/>
  <path class="st9" d="M-682.83-1017.85c-1.2,9.36,1.74,3.81,7,7.51,1.11,5.18-6.38,2.89-7,3.49-.54.52-.05,14.37.44,15.07,1.13,1.6,4.78.78,6.57.94,2.02,6.82-8.76,5.93-11.46,1.95-2.84-4.18-.87-17.33-1.53-17.96-.31-.29-3.07.22-4.02,0-1.09-5.44,1.75-3.22,3.51-4.96,2.14-2.12.47-7.43,6.49-6.04Z"/>
  <path class="st8" d="M-842.06-1066.66c1.7-.19,7.72.66,8.22,2.33,1.57,5.2-4.9,2.4-6.54,2.42-7.28.1-7.24,13.32-3.47,15.57,4.01,2.39,9.34-2.99,10.96,3-19.73,13.69-26.78-21.33-9.17-23.33Z"/>
  <path class="st1" d="M-535.82-1037.85c.21-3.01,2.67-4.91,3.77-7.72,3.19-8.15,3.73-13.9.7-22.25-1.08-2.96-3.72-5.67-4.46-7.54-.85-2.15,2.6-1.71,3.49-1.49,5.25,1.3,8.74,15.35,8.51,20.46-.26,5.85-4.06,20.68-12.01,18.54Z"/>
  <path class="st9" d="M-627.83-1076.84c-6.01,12.02-8.7,20.41-2.88,33.38,1.11,2.48,6.01,7.21-.59,5.59-4.97-1.21-8.63-14.7-8.55-19.43.07-3.85,4.17-16.46,6.93-18.9,1.51-1.33,3.37-.49,5.09-.64Z"/>
  <path class="st32" d="M-772.82-1065.85c4.22-1.68,5.2,2.05,5.54,2.06,2.4.08,6.72-4.59,10.47-2.05-.72,7.22-2.03,3.94-6.3,5.19-8.88,2.62,2.53,22.24-9.71,19.8v-25Z"/>
  <path class="st10" d="M-777.82-1010.35c.43-1.42,4.29-2.07,4.98-1.47.52.45-1.14,3.64,1.51,2.97,2.22-3.17,4.83-3.36,8.52-3,.72,7.15-.51,3.95-4.97,5.58-1.25.46-4.03,2.6-4.03,3.93v15.5h-6c1.13-5.95-1.53-18.47,0-23.5Z"/>
  <path class="st30" d="M-746.82-1065.85v25h-5.01c-.18-5.82.25-11.71.05-17.54-.21-5.94-4.41-8.42,4.96-7.46Z"/>
  <rect class="st6" x="-669.82" y="-1011.85" width="5" height="25"/>
  <path class="st26" d="M-446.36-409.61c2.72-2,4-6.51,8.27-5.84,7.34,1.15,1.57,6.66,5.73,8.84-4.78-1.02-9.23-1.71-14-3Z"/>
  <path class="st23" d="M74.09,51.73c.15-1.15.16-12.9-.4-13.8l-20.19-4.66c6.94.97,13.81,2.58,20.68,4,.96.41.39,3.03.51,4.02.05,1.73.2,3.48.24,5.2.04,1.73.11,3.66-.23,5.33.07.08,1.44-.83,1.61-.95.58-.45.85-.65.93-1.5.32-3.07-.31-6.59-.11-9.71-.11-1.37.43-3.15-.82-4.06-1.02-.58-4.26-1.09-5.55-1.08-.17.18.16.4.45.64,1.4,1.53-2.91.49-3.23.17-.63-.55.62-.96.03-1.28l-5.88-1.16c-.16.01.04,1.11-.61,1.23-7.61-1.06,2.24-1.67-5.13-2.54-.29-.06-.67-.27-.9-.29-.85.4-4.18,1.79-4.17,3.2.45,2.93-2.01,13.3.95,14.05t-.02.01c4.14.15,19.98,6.26,21.84,3.18M67.53,43.11c-.03.66-.09.85,0,1.63l.06,1.33c-4.19-1.28-2.89-.39-3.09,2.69-.15.07-2.8-.53-3.13-.7-.04-.98-.07-1.95-.1-2.93l-.13-.08-.12-.26c-.88-.13-1.76-.27-2.62-.52-.03-.4.04-2.44-.27-2.73.11-.05.21-.12.24-.24,3.71.94,3.38.86,3.12-2.78.9.11,1.78.29,2.67.5.22,1.07.33,2.21.3,3.39,1.01.28,2.03.51,3.07.7"/>
  <path class="st3" d="M68.53,33.3c-.52-.6-5.49-1.1-6.52-1.51-.85-.08-.3,1.97-.91,1.98-.36,0-.93-.37-1.33-.38-.18-1.67.1-3.39,1.88-3.61l7.75,1.65c.38.18.9.75.99,1.18s.08,2.38-.15,2.67c-.19.24-1.28,0-1.45-.18-.29-.32.08-1.41-.26-1.79Z"/>
  <path class="st23" d="M-698.82-770.85c-.03,4.99.03,10.01,0,15-4.52-3.09-4.56-15.85,0-19,0,1.33,0,2.67,0,4Z"/>
  <path class="st2" d="M-664.82-1021.85l-.95,6.58c-7.86,1.64-6.88-8.41.95-6.58Z"/>
  <path class="st24" d="M-746.82-1075.85v6.01s-6,0-6,0c-.62-5.29.67-6.64,6-6Z"/>
  <path class="st31" d="M-997.82-1140.84l-28.95-3.05c-1.32-8.3,9.48-27.55,19-24.53,8.58,2.72,10.49,20.08,9.96,27.57Z"/>
  <path class="st15" d="M-1040.83-1144.85l-29-3c.31-9.27,7.26-26.12,18.52-25.09,9.17.84,11.51,20.86,10.48,28.08Z"/>
  <path class="st11" d="M-1082.82-1149.84l-30.01-3.01c6.32-32.06,31.71-32.43,30.01,3.01Z"/>
  <path class="st33" d="M-1151.83-1156.85c.91-7.04,4.44-16.8,9.97-21.53,16.33-13.96,22.04,21.25,18.1,24.11-1.76,1.28-23.99-2.73-28.07-2.59Z"/>
  <path class="st31" d="M-987.31-861.84c2.46-.52,3.73,4.03,4.21,5.77,6.25,22.54,7.28,49.1,13.06,72.04.61,3.25-2.87,4.77-4.57,1.47s-3.74-18.25-4.74-23.26c-2.93-14.55-8.18-35.55-9.36-49.65-.13-1.55-.64-5.94,1.4-6.37Z"/>
  <path class="st13" d="M-1169.82-800.85c-.14-2.43-.03-4.8.27-7.22,2.47-20,9.36-52.68,14.87-72.15.52-1.84.41-4.88,3.35-3.61,1.99.86,1.54,3.68,1.41,5.35-1.82,23.36-12.67,50.09-15.18,73.87-.82,2.62-1.5,4.3-4.72,3.77Z"/>
  <path class="st13" d="M-934.87-892.81l13,68.61c.48,3.37-3.14,4.95-4.77,1.67l-13.13-67.91c.05-2.7,2.84-2.64,4.9-2.36Z"/>
  <path class="st35" d="M59.63,58.79c5.69-.44,6.05,8.24.38,8.36-5.32.11-5.66-7.95-.38-8.36Z"/>
  <path class="st31" d="M-1041.12-693.64c1.52-.46,21.26.83,22.28,1.3.89.41,2.15,1.78,1.96,2.87-.9,5.42-26.09,3.67-26.9-.99-.22-1.3,1.49-2.83,2.66-3.18Z"/>
  <path class="st18" d="M-834.82-775.85c.1-1.9-1.03-4.14,1.49-4.01,3.97.2,24.48,5.32,25.54,4.57,2.91-2.07-.39-22.15-.03-26.57.94-.94,23.9,3.29,26.31,4.19,1.82.68,2.5,8.75,2.68,11.32.38,5.44-.31,11,.06,16.44,3.42.74,26.06,4,26.82,5.18,1.53,2.37-1.64,10.95,1.13,13.87-.02,1,.02,2,0,3-.31,3.35-.64,6.69-1,10-3.46,1.17-23.46-6.22-26.01-4.54-1.93,1.27.03,4.81.06,6.99.05,4.87.63,12.62-.04,17.04-.14.95-.39,2.05-1.46,2.23l-26.9-4.71c-1.38-.45-.41-2.18-.64-3.03-.36-7.52-.63-15.06-.82-22.59l-1.18-1.41c-3.41-.21-24.51-3.45-25.56-4.94-.53-7.55-.85-15.51-.44-23.06Z"/>
  <path class="st26" d="M-808.82-747.85c.66.04,1.34-.06,2,0v24.01c-2.21-8.09.37-15.99-2-24Z"/>
  <path class="st26" d="M-751.82-737.85c.43-3.14-1.13-7.63,1-10-.05,2.3.78,9.4-1,10Z"/>
  <path class="st35" d="M43.84,31.69c4.93-.61,5.42,6.37,1.07,6.94-4.74.62-5.63-6.37-1.07-6.94Z"/>
  <path class="st35" d="M-1116.81-952.85c-.55-.67,5.53-12.44,3.99-13.99-.76-.76-3.94.29-5.06,1.43-2.01,2.07-3.26,8.39-4.73,11.3-.35.69-.08,1.94-1.7,1.26-.62-.26-8.9-7.8-10.05-8.95-6-5.97-15.26-17.17-16.37-25.62-1.98-15.03,10.64-25.77,23.41-15.42,2.16,1.75,3.97,5.87,6.02,6.08,3,.3,8.42-7.71,15.71-6.89s14.82,11.03,14.84,18.31c.05,15.43-15.4,24.39-26.07,32.5Z"/>
  <path class="st19" d="M-703.28-997.6c6.07,5.04-6.29,9.35-7.53,5.21s4.96-4.71,7.53-5.21Z"/>
  <path class="st34" d="M-649.12-1006.68c9.01-2.73,9.75,14.84,2.74,15.87-8.22,1.2-8.31-14.19-2.74-15.87Z"/>
  <path class="st34" d="M-819.1-1061.68c8.19-1.26,8.5,16.77.77,16.75-7.07-.02-8.21-15.61-.77-16.75Z"/>
  <path class="st28" d="M-861.82-1055.85c-.96,1-15.38.39-7.4-4.89,5.73-3.79,8.98,3.26,7.4,4.89Z"/>
  <path class="st29" d="M-797.16-1006.69c10.93-3.76,10.94,19.43,0,15.68-3.85-1.32-3.8-14.38,0-15.68Z"/>
  <path class="st7" d="M-659.82-1055.85c-3.86-.54-10.99,2.13-8.85-3.34,1.82-4.65,10.62-2.94,8.85,3.34Z"/>
</svg>