<?xml version="1.0" encoding="UTF-8"?><svg id="Calque_1" xmlns="http://www.w3.org/2000/svg" viewBox="0 0 100 100"><defs><style>.cls-1{fill:#151616;}.cls-2{fill:#aa190e;}.cls-3{fill:#fcfcfc;}.cls-4{fill:#171717;}.cls-5{fill:#fcfcfd;}.cls-6{fill:#151515;}.cls-7{fill:#fdfdfd;}.cls-8{fill:#161616;}</style></defs><polygon class="cls-7" points="3.87 64.05 49.92 36.96 96.39 63.86 50.48 92.98 3.87 64.05"/><path class="cls-8" d="M.61,63.15l16.65-9.82c-.21,1.01-.47,2.02-.47,3.06l-12.93,7.66,46.61,28.93,46.05-28.93c.05-.22-.06-.13-.15-.19-4.45-2.65-8.96-5.22-13.45-7.81-.22-1.1-.29-2.26-.82-3.27.09-.07.49.18.6.24,5.78,3.17,11.35,6.8,17.05,10.09l.24.43-.3,3.61-.17.39c-16.07,10.62-32.23,21.06-48.29,31.71-.34.17-.72.29-1.11.23-16.52-10.53-33.15-21.17-49.73-31.63-.24-.25-.41-.58-.4-.93.25-3.33-.09.49.23-2.78.04-.39.13-.69.38-1Z"/><path class="cls-6" d="M53.34,23.38c3.64.71,6.7,2.58,7.35,6.35.22,1.28.41,3.07.48,4.37.09,1.6.12,2.05-1.4,2.82-4.75,2.4-14.51,2.32-19.31.07-1.4-.66-1.71-.88-1.66-2.46.06-1.74.37-5.33,1.11-6.84,1.27-2.56,4.1-3.66,6.72-4.49-4.31-2.55-3.98-8.96.6-11.07,5.61-2.58,11.29,3.53,8.23,8.85-.56.97-1.25,1.38-2.01,2.12-.09.09-.16.1-.12.27Z"/><path class="cls-1" d="M31.81,48.5s-.05.16.07.22c.23.11.82.18,1.15.3,5.42,1.93,5.89,4.73,6.16,9.98.02.38.06,1.06-.02,1.4-.19.83-1.8,1.42-2.56,1.7-4.91,1.8-12.88,1.86-17.59-.5-1.27-.64-1.33-.91-1.29-2.28.06-1.71.35-5.04,1.1-6.52,1.21-2.39,3.95-3.64,6.51-4.19-.1-.18-.37-.22-.57-.38-6.41-5.21,1.4-14.09,7.44-9.29,3.29,2.62,2.86,6.7-.05,9.4-.12.11-.33.15-.34.16Z"/><path class="cls-8" d="M74.39,48.93c2.88.62,5.9,1.92,6.87,4.84.46,1.38.86,4.94.86,6.43,0,.92-.9,1.38-1.63,1.72-4.64,2.16-14.6,2.35-19.04-.29-1.08-.64-.95-1.18-.91-2.32.05-1.4.28-3.87.66-5.19.9-3.14,3.86-4.6,6.96-5.19.18-.15-.52-.46-.62-.55-2.55-2.18-3.07-5.67-.85-8.29,3.9-4.61,11.12-1.45,10.56,4.39-.18,1.88-1.42,3.29-2.84,4.45Z"/><path class="cls-2" d="M36.32,72.2c-.6.72-1.49,2.83-2.6,1.58l-1.47-5.62c.01-1.47,1.7-.97,2.76-1.01.27-.01.52-.11.79-.12.71-.02,2.82-.11,3.36.05.43.13.67.67.54,1.08-.12.38-1.3,1.36-1.57,1.79-.04.16.56.52.71.62,5.08,3.49,12.76,4.28,18.59,2.33,1.35-.45,2.58-1.16,3.87-1.7-.76-.73-2.64-1.22-1.18-2.4l5.79-1.88c.47-.06,1,.37,1.06.83l-.68,5.81c-.82,1.47-1.92-.32-2.78-.79-.63.35-1.23.79-1.87,1.12-7.17,3.72-15.68,3.45-22.79-.26-.86-.45-1.65-1.04-2.53-1.45Z"/><path class="cls-4" d="M35.55,45.31c.32-.95.37-1.93.34-2.91l5.65-3.38c1.06.34,2.22.61,3.45.8l-9.44,5.49Z"/><path class="cls-4" d="M64.17,45.2l-9.24-5.34c1.22-.18,2.37-.43,3.41-.76l5.49,3.19c.25.92-.18,1.98.34,2.91Z"/><path class="cls-2" d="M30.48,27.63c-.23-.34-.37-2.62-.5-3.15-2.91.67-8.49,2.53-8.95,6.78-.14,1.3.79,2.71.13,3.84-.74.72-1.79.12-1.99-.87-.22-1.1-.46-2.5-.28-3.72.7-4.85,6.36-7,10.62-8.46-.1-1.3-1.73-3.72.71-3.53,1.68,1.08,3.66,1.94,5.31,3.05.79.53,1.05.87.47,1.82-1.42,1.1-2.77,3.55-4.15,4.52-.45.31-1.08.15-1.37-.27Z"/><path class="cls-7" d="M41.56,34.88c-.07-.1.07-1.52.09-1.8.33-3.8.55-5.68,4.71-6.87,1.21-.35.76-.14,1.66.38.99.57,2.27.68,3.36.3.43-.15,1.44-.9,1.65-.88.39.04,2.01.65,2.44.84,3.62,1.67,2.72,4.63,3.28,7.89-.05.35-2.32.93-2.75,1.03-4.53,1.02-10.12.82-14.45-.88Z"/><path class="cls-7" d="M49.35,14.48c5.38-.76,5.88,6.46,1.42,7.09-5.28.75-5.78-6.47-1.42-7.09Z"/><path class="cls-7" d="M36.67,59.47c-4.41,1.74-10,1.98-14.57.68-.33-.09-1.79-.51-1.86-.74.53-3.16-.38-5.97,3.13-7.6.35-.16,2.09-.81,2.35-.76.08.01.87.72,1.24.88.98.42,1.92.41,2.92.03.71-.27,1.08-.9,1.82-.78,2.48.43,4.28,2,4.64,4.42.19,1.27.21,2.59.33,3.87Z"/><path class="cls-3" d="M27.69,40.17c2.66-.43,4.87,1.7,4.18,4.27-1.04,3.89-7.61,2.97-6.85-1.68.19-1.14,1.5-2.39,2.67-2.58Z"/><path class="cls-5" d="M79.48,59.8c-5.13,1.91-11.34,1.85-16.45-.05.42-2.2-.17-5.27,1.77-6.86.6-.49,3.12-1.72,3.83-1.52.24.07.92.67,1.41.84.94.32,1.71.31,2.64-.03.41-.15,1.19-.77,1.33-.8.32-.07,2.14.62,2.53.81,1.07.51,1.95,1.21,2.36,2.34.39,1.72.48,3.52.58,5.28Z"/><path class="cls-3" d="M70.73,40.39c4.82-.63,5.51,6.5.76,6.78s-4.86-6.25-.76-6.78Z"/><path class="cls-2" d="M70.4,26.25c.33-.16,2.33.04,2.8,0-.08-2.7-3.89-6.32-7.62-6.16-1.14.05-2.25,1.08-3.3.64-.71-.57-.32-1.6.51-1.92.92-.35,2.11-.75,3.19-.76,4.28-.02,8.86,4.1,9.4,8.12,1.14.1,3.51-1.03,2.93,1.13-1.22,1.36-2.29,3.01-3.53,4.33-.59.63-.93.81-1.65.16-.71-1.43-2.6-2.98-3.21-4.36-.19-.44.05-.99.47-1.19Z"/></svg>