<?xml version="1.0" encoding="UTF-8"?>
<svg id="Calque_1" xmlns="http://www.w3.org/2000/svg" version="1.1" viewBox="0 0 100 100">
  <!-- Generator: Adobe Illustrator 29.8.3, SVG Export Plug-In . SVG Version: 2.1.1 Build 3)  -->
  <defs>
    <style>
      .st0 {
        fill: #f9f9fa;
      }

      .st1 {
        fill: #b00602;
      }

      .st2 {
        fill: #f8f9f9;
      }

      .st3 {
        fill: #f9f9f9;
      }

      .st4 {
        fill: #f8f9fa;
      }

      .st5 {
        fill: #171817;
      }

      .st6 {
        fill: #161717;
      }

      .st7 {
        fill: #f8f8f8;
      }

      .st8 {
        fill: #f9fafa;
      }

      .st9 {
        fill: #fdfdfd;
      }

      .st10 {
        fill: #161616;
      }
    </style>
  </defs>
  <path class="st9" d="M35.79,55.28l-3.01,11.74c-.2.03-.65.06-.59-.26l2.98-11.4c.09-.34.35-.07.62-.08Z"/>
  <path class="st10" d="M34.11,43.45v.02s-.02,0-.03,0h.03Z"/>
  <path class="st10" d="M99.99,63.54l-.3,3.61-.17.39c-16.07,10.62-32.23,21.06-48.29,31.71-.34.17-.72.29-1.11.23-16.52-10.53-33.15-21.17-49.73-31.63-.24-.25-.41-.58-.4-.93.08-1.07.1-1.4.1-1.47H.09c0-.18.05-.56.13-1.31.04-.39.13-.69.38-1h.01s25.91-15.23,25.91-15.23l1.58-.93v2.74l-1.59.94-22.64,13.39,46.6,28.93,1.05-.66.06-.04,44.94-28.23c.05-.21-.05-.14-.14-.19h-.01c-.1-.06-.2-.12-.32-.19-.21-.12-.45-.27-.72-.42-.16-.1-.34-.2-.52-.31-.28-.17-.59-.34-.91-.53-4.88-2.86-14.36-8.34-21.46-12.44-1.34-.77-2.6-1.5-3.72-2.15l-.29-2.96c1.17.66,2.48,1.41,3.81,2.17,5.01,2.86,10.4,5.96,10.46,5.99,5.78,3.17,11.35,6.8,17.05,10.09l.24.43Z"/>
  <g>
    <path class="st6" d="M34.94,56.51l-3.09,12.07c-.21.03-.67.06-.61-.27l3.06-11.72c.09-.35.36-.07.64-.08Z"/>
    <path class="st6" d="M34.97,18.2c-.12.15-.27.29-.45.42-.12.09-.26.17-.38.25-.03-.25-.03-.5,0-.77l.83.1Z"/>
    <path class="st6" d="M36.09,22.26c-.33,1-1.71.04-2.15-.41-.25-.25-.49-.6-.69-.97v-1.69c.28-.06.59-.16.88-.33.06.86.42,1.58,1.14,2.18.43.36,1.12.3.81,1.21Z"/>
    <path class="st6" d="M44.07,17.68l-1.15-.15.54,1.54-3.68-.44c-.13,1.17.44,1.95,1.27,2.68.4.36.88.2.71,1.11-.2,1.03-1.36.32-1.85-.1-1-.83-1.74-2.39-1.61-3.69l-3.33-.43c.44-.47.64-1.03.81-1.62l-1.38-.15c-.27-.15.26-1.58.42-1.86.3-.48,1.21-1.31,1.8-1.31,1.31-.01,1.91,2.59,1.81,3.63h-.03c.53.2,1.09.22,1.67.07.1-.94.5-2.07,1.25-2.62,2.13-1.57,2.98,1.76,2.75,3.35Z"/>
    <path class="st6" d="M44.56,20.61l-.39.46-.71-2,.87.1c.01.47.09.96.23,1.44Z"/>
    <path class="st6" d="M33.21,44.34v.02s-.02,0-.03-.01h.03Z"/>
    <path class="st6" d="M56.03,19.03l-1.57-.15s0,.07,0,.1l-.14,1.44-2.45-.31c-.04.95.38,1.73,1.07,2.34.44.4,1.33.5.88,1.41-.62,1.26-2.45-.83-2.82-1.48-.47-.84-.56-1.56-.74-2.49l-4.25-.56c-.51.08.19,1.6.37,1.88.34.51,1.35,1.02,1.43,1.26.43,1.42-1.02,1.27-1.86.51-.67-.61-1.13-1.47-1.39-2.39l2.2-2.58-.68-.07c.03-1.06.41-2.18,1.29-2.83,2.07-1.51,2.97,1.62,2.75,3.23l-.24-.02c.53.26,1.25.43,2.11.19-.06-1.26,1.11-3.29,2.49-3.12,1.17.14,1.66,2.63,1.55,3.62Z"/>
    <path class="st10" d="M65.91,51.58l-.15-2.28-.02-.41-.2-1.91h0s-.3-3.03-.3-3.03l-2.23-22.29c-.02-2.86-3.62-1.71-5.49-2.36.3-2.93-1.87-7.26-5.18-4.69-.21.16-.94,1.09-1.14.94-1.18-3.19-3.95-2.85-5.91-.53-.77-2.19-2.45-3.48-4.66-2.04-.27.16-1.08,1.09-1.24.96-1.42-3.55-5.05-2.31-6.25.68-.11.29-.4,1.51-.46,1.55-.29.22-2.06-.6-2.5.86l-.04,29.14v5.97s-.02,1.94-.02,1.94v1.02c0,.9,2.3,1.08,2.95,1.14l-3.36,12.97c.01.11,0,.25.07.34.07.11,2.48.53,2.7.51.3-.02.42-.29.49-.56l3.39-12.86,18.65,2.69,2.79,12.93c.05.27,1.52.4,1.58.35.17-.16,1.14-.6,1.27-1.17l-2.07-11.71c.83.42,2.29-.16,2.29-1.15v-21.19c-.59.09-1.03.11-1.36.11.01,1.07.01,2.14,0,3.21.01.92.01,1.83.01,2.75v.04c0,4.81-.01,9.62,0,14.43.03.57-.43.49-.87.46l-27.2-3.76V17.83c.24-.02,1.09-.01,1.19.14.04.08.08,1.46.19,1.89.08.32.24.68.42,1.02v-1.69c.28-.06.59-.16.88-.33-.03-.25-.03-.5,0-.77l.83.1c.44-.47.64-1.03.81-1.62l-1.38-.15c-.27-.15.26-1.58.42-1.86.3-.48,1.21-1.31,1.8-1.31,1.31-.01,1.91,2.59,1.81,3.63h-.03c.53.2,1.09.22,1.67.07.1-.94.5-2.07,1.25-2.62,2.13-1.57,2.98,1.76,2.75,3.35l-1.15-.15.54,1.54.87.1c.01.47.09.96.23,1.44l2.2-2.58-.68-.07c.03-1.06.41-2.18,1.29-2.83,2.07-1.51,2.97,1.62,2.75,3.23l-.24-.02c.53.26,1.25.43,2.11.19-.06-1.26,1.11-3.29,2.49-3.12,1.17.14,1.66,2.63,1.55,3.62l-1.57-.15s0,.07,0,.1l-.14,1.44,5.06.65c.08,4.37.12,8.76.13,13.13l1.37.04v-12.79s.53-.02.53,0l-.03,12.87.37.05s.78-.03.93,1.28c0,0,.27,1.14-1.27,1.64v17.59c.37-.01,1.59.21,1.85-.01.09-.07.3-1.46.84-1.92.61-.52,1.8-.28,1.87-.34l-.06-1.03ZM34.94,56.51l-3.09,12.07c-.21.03-.67.06-.61-.27l3.06-11.72c.09-.35.36-.07.64-.08Z"/>
  </g>
  <path class="st1" d="M43.61,39.66c-.48-.01-1.17-.15-1.56.49-.34.56-.41,1.01-.23,1.52.02.05.04.1.07.15-.72.52-1.6.86-2.64.9l.88-.45c1.48-1.06,2.07-2.76,1.35-4.48-.19-.41-.52-.77-.59-1.23-.26.2-.29.68-.7.35-.77-.61-.59-3.3-.05-4.11-.13-.03-.16.07-.25.13-.94.78-1.56,2.06-1.74,3.26-.06.44-.02,1.93-.23,2.14-.24.24-.58.05-.73-.16-.45-.64-.29-1.7-.14-2.43-1.49,1.71-1.47,4.62.03,6.31l1.13.75c-4.11.13-6.33-4.31-4.37-7.76.69-1.22,1.73-2,1.13-3.57-.07-.2-.21-.33-.26-.52.89.29,1.49,1.07,1.95,1.85,1.09-1.06,1.13-3.09.68-4.45-.16-.51-.47-.95-.65-1.45,1.54.69,2.88,2.15,3.71,3.59.39.68,1.16,2.28,1.16,3.03v1.4c1.07-.86.64-2.39.21-3.5.69.5,1.26,1.18,1.67,1.93,1.03,1.88,1.05,4.37.15,6.3Z"/>
  <g>
    <path class="st9" d="M34.97,18.2c-.12.15-.27.29-.45.42-.12.09-.26.17-.38.25-.03-.25-.03-.5,0-.77l.83.1Z"/>
    <path class="st9" d="M44.56,20.61l-.39.46-.71-2,.87.1c.01.47.09.96.23,1.44Z"/>
    <path class="st9" d="M33.21,44.34v.02s-.02,0-.03-.01h.03Z"/>
  </g>
  <path class="st0" d="M44.07,17.68l-1.15-.15-2.87-.38c0-.06.01-.13.02-.2.1-.94.5-2.07,1.25-2.62,2.13-1.57,2.98,1.76,2.75,3.35Z"/>
  <path class="st8" d="M50.12,18.36l-.24-.02h-.03s-3.08-.31-3.08-.31l-.68-.07c.03-1.06.41-2.18,1.29-2.83,2.07-1.51,2.97,1.62,2.75,3.23Z"/>
  <path class="st4" d="M56.03,19.03l-1.57-.15-2.46-.25s-.01-.07-.01-.1c-.06-1.26,1.11-3.29,2.49-3.12,1.17.14,1.66,2.63,1.55,3.62Z"/>
  <path class="st2" d="M38.44,16.88h-.05s-2.6-.31-2.6-.31l-1.38-.15c-.27-.15.26-1.58.42-1.86.3-.48,1.21-1.31,1.8-1.31,1.31-.01,1.91,2.59,1.81,3.63Z"/>
  <path class="st7" d="M35.01,56.5l-3.01,11.74c-.2.03-.65.06-.59-.26l2.98-11.4c.09-.34.35-.07.62-.08Z"/>
  <path class="st3" d="M56.99,59.67c.52,3.45,1.54,6.82,2.07,10.27.04.24.27.98-.03,1.07-.26.07-.41-.08-.46-.33l-2.22-11.17.63.16Z"/>
  <path class="st6" d="M62.07,36.17c-.05.31-.31.51-.67.65-.16.06-.34.11-.53.15-.42.07-.9.09-1.36.09-.26,0-.51-.02-.74-.03-.35-.03-.64-.06-.83-.1-.05-.01-.1-.02-.15-.04-1.09-.35-1.38-2.22-2-3.11-.42.68-1.66,2.11-1.83,2.8-.06.25.02.61.17,1.02.47,1.19,1.66,2.86,2,3.63.04.08.08.19.13.31.01.03.02.06.04.09.44,1.13,1.33,3.68,1.48,4.83.02.22.03.38,0,.48-.29.98-1.59,1.02-2.18.3-.7-.86-1.27-4.03-1.94-5.32-.45-.87-1.37-1.84-1.96-2.65-1.21,5.06-2.63,4.19-6.74,3.38-.78-.14-2.2.12-2.62-.79-.01-.02-.02-.04-.02-.07-.04-.09-.07-.2-.08-.32-.21-1.71,1.3-1.62,2.86-1.32.03.01.07.02.1.02h.01c1.26.27,2.55.67,2.97.35.25-.19.82-1.85,1.04-2.7.01-.03.02-.06.02-.09.03-.11.05-.21.06-.28.01-.02.01-.04.01-.06.05-.56-.24-.93-.09-1.48.02-.07.06-.17.12-.3.08-.15.21-.35.35-.58.83-1.31,2.45-3.43,2.28-3.56-1.77-.63-1.85,1.03-2.85,1.85-1.16.96-2.68-.12-2.29-1.14.03-.06.79-.66.98-.88.96-1.15,1.49-2.38,3.2-2.31,1.44.04,4.24.43,5.31,1.43.42.39,1,1.46,1.48,2.42.45.89.81,1.69.92,1.75.07.04.16.07.28.09.14.02.33.03.52.03.42-.01.92-.05,1.37-.01.2.01.37.03.53.08.49.16.81.53.67,1.39Z"/>
  <path class="st5" d="M34.11,43.45v.02s-.02,0-.03,0h.03Z"/>
  <path class="st10" d="M45.32,46.01c-2.26-.13-5.52-.51-8.39-.97-.04-.01-.08-.01-.13-.02-.39-.06-.78-.12-1.16-.2-.22-.03-.43-.07-.64-.11-.61-.1-1.18-.22-1.7-.33-.02-.01-.06-.01-.09-.02v-.02h-.03s-.01.01-.02.01c-.39-.07-1.21-.25-1.21-.56v-21.09c0-.06.2-.21.29-.24l1.01.12,13.6,1.7c.17.12.14.35.16.53.12.97.17,4.45-.01,6.07l-.78.53-.11-6.31-12.86-1.75h-.01c-.14-.07-.4.16-.4.23v19.76l.38.05,1.26.19.58.08.34.05,2.9.42.13.02h.01l6.7.97c1.22.04.99-.38.98-1.43h.89c-.07,1.97.57,2.44-1.69,2.3Z"/>
  <path class="st5" d="M58.11,26.22c2.09,2.19-1.58,5.14-3.21,2.59-1.53-2.4,1.56-4.32,3.21-2.59Z"/>
</svg>