<?xml version="1.0" encoding="UTF-8"?><svg id="Calque_1" xmlns="http://www.w3.org/2000/svg" viewBox="0 0 100 100"><defs><style>.cls-1{fill:#151616;}.cls-2{fill:#fefefe;}.cls-3{fill:#fdfdfd;}.cls-4{fill:#a4110c;}</style></defs><path class="cls-1" d="M44.76,13.36c.48-.57.78-1.28,1.27-1.85,2.72-3.11,7.32-1.49,7.5,2.59.28.05.16-.04.22-.15.71-1.4,1.84-3.04,3.56-3.31,3.59-.56,5.38,2.16,5.12,5.46.05.08,1.38.2,1.62.23,1.19.11,2.51.07,3.69.23.88.11,1.46.34,1.55,1.3.22,2.27-.1,4.71-.12,6.98-.05,6.33-.06,12.63-.08,18.95l29.99,17.73c.24.21.4.52.43.84-.3,3.48.14,1.53-.25,4.93-.05.47-.19.65-.53.95-15.92,10.55-31.53,20.53-47.36,31.2-.38.27-.82.47-1.25.19-16.24-10.86-32.67-21.31-49.12-31.83-.34-.22-.71-.52-.73-.96.26-3.49-.34-.83,0-4.27.03-.33.11-.58.32-.84l29.26-17.98V15.94c.08-.66.24-1.25.83-1.62.21-.13,1.35-.61,1.58-.64.61-.09,3.41.43,3.53.31.57-3.14,3.6-5.94,6.86-4.27,1.26.65,2.15,2.22,2.13,3.63Z"/><path class="cls-3" d="M29.86,65.2c.1.58.67,1.03,1.25,1.08,9.81,1.14,19.55,3.08,29.36,4.14,1.5.16,2.45.42,3.63-.78-.23-.25-1.52-2.01-1.65-2.04-.11-.02-.33.11-.51.09-5.51-.51-11.37-1.5-16.9-2.24-3.82-.51-7.97-.9-11.73-1.59-.24-.04-.86-.11-.97-.3l-.16-47.25,3.28.21c-.1,1.95.61,3.89,2.4,4.84.87.46,2.38.83,2.65-.48.36-1.76-1.34-1.26-2.03-2.15-.42-.55-.54-1.22-.49-1.89l5.96.44c.1.02.12.08.15.16.22.6.19,1.57.44,2.31.51,1.49,2.14,3.12,3.84,2.77,1.01-.21,1.26-1.7.39-2.24-.33-.21-.74-.2-1.09-.39-.73-.38-1.02-1.54-1.02-2.31l6.34.53c-.22,2.2,1.81,5.57,4.28,5.17.81-.13,1.08-1.15.68-1.83-.36-.61-.82-.5-1.33-.79-.75-.42-1.12-1.53-1.09-2.35l9.3.8c.2.15.2.39.22.62.27,3.01-.1,6.67-.12,9.72-.03,4.23.1,8.47,0,12.69,0,.39-.16.72-.11,1.16.06.52.82,1.42,1.11,1.95,2.11,3.86,2.23,8.32.35,12.3-.17.35-.71,1.05-.79,1.33-.05.18.46.9.6,1,.21.15.56.13.81.25,1,.48,1.34,1.01,2.04,1.82l.16-15.43,26.9,16.01-45.49,29.54L3.65,62.61l26.21-16.06v18.65Z"/><path class="cls-2" d="M59.98,15.89l-4.07-.21c-.15-.02-.18.06-.15-.15.11-.85,1.06-2.17,1.9-2.43,1.84-.59,2.49,1.32,2.32,2.8Z"/><path class="cls-3" d="M42.44,14.52l-4.23-.37c.9-3.15,4.34-3.42,4.23.37Z"/><path class="cls-2" d="M51.21,15.26l-3.96-.32c-.49-.03.05-.88.22-1.15,1.61-2.57,3.95-1.27,3.74,1.47Z"/><path class="cls-4" d="M65.29,61.32c.15.08.46-.01.66.03.6.14.76.31,1.17.73,2.19,2.27,4.03,5.3,6.23,7.62,1.72,2.8-2.07,5.97-4.75,3.06-1.64-1.78-4.24-4.9-5.59-6.88-.46-.68-.66-1.07-.58-1.93.02-.22.21-.59.18-.74-.05-.24-1.29-1.44-1.45-1.82-8.43,4.25-17.57-3.18-15.7-12.31,1.35-6.61,8.31-10.05,14.47-7.27,6.71,3.03,8.67,11.94,3.79,17.48.4.24,1.36,1.91,1.59,2.04Z"/><path class="cls-1" d="M37.02,26.91c7.47.44,14.91,1.5,22.37,2.1,1.62.33,1.43,2.6-.31,2.43l-21.97-2.23c-1.13-.31-1.17-1.88-.09-2.29Z"/><path class="cls-1" d="M36.91,33.89c.29-.07.63-.01.92-.02l21.66,2.23c.79.22,1.22,1.09.78,1.83-.39.66-1.04.52-1.73.5-6.81-.27-13.95-1.79-20.8-2.13-.51-.11-.94-.05-1.29-.51-.45-.59-.3-1.69.45-1.88Z"/><path class="cls-1" d="M37.02,40.75c.42-.1,1.3.04,1.77.08,2.21.19,4.42.56,6.63.76.7.29.95.82.77,1.57-.2.81-.91.76-1.6.74-2.42-.08-5.12-.7-7.56-.9-1.08-.24-1.07-2.01-.03-2.25Z"/><path class="cls-1" d="M36.91,47.62c.2-.05.41-.03.61-.02,1.58.07,3.31.49,4.9.6,1.2.37,1,2.35-.35,2.26-1.5-.36-3.6-.17-5.02-.59-1.14-.34-1.13-2.02-.13-2.25Z"/><path class="cls-3" d="M54.68,43.83c6.46-.66,11.05,6.45,7.86,12.09-2.74,4.83-9.2,4.87-12.65.78-3.85-4.58-1.35-12.23,4.79-12.86Z"/></svg>